<svg width="24" height="24" viewBox="0 0 24 24" fill="none" xmlns="http://www.w3.org/2000/svg">
<path d="M13.7256 21C13.5498 21.3031 13.2975 21.5547 12.9939 21.7295C12.6902 21.9044 12.346 21.9965 11.9956 21.9965C11.6452 21.9965 11.301 21.9044 10.9974 21.7295C10.6938 21.5547 10.4414 21.3031 10.2656 21" stroke="#6B7586" stroke-width="1.5" stroke-linecap="round" stroke-linejoin="round"/>
<path fill-rule="evenodd" clip-rule="evenodd" d="M18.7534 8.39598C18.8073 11.556 19.5024 13.563 20.1585 14.7659C20.5011 15.394 20.8371 15.8104 21.0758 16.0623C21.1953 16.1885 21.2909 16.2739 21.3513 16.3242C21.3815 16.3494 21.403 16.3658 21.4142 16.3742L21.4229 16.3805C21.6931 16.5649 21.8129 16.9036 21.7179 17.2173C21.6221 17.5337 21.3306 17.75 21.0001 17.75H3.00006C2.66956 17.75 2.37801 17.5337 2.28224 17.2173C2.18726 16.9036 2.30703 16.5649 2.57726 16.3805L2.58589 16.3742C2.59716 16.3658 2.61861 16.3494 2.64883 16.3242C2.70925 16.2739 2.80483 16.1885 2.92434 16.0623C3.16298 15.8104 3.49904 15.394 3.84164 14.7659C4.52476 13.5135 5.25006 11.3895 5.25006 8C5.25006 6.20979 5.96122 4.4929 7.22709 3.22703C8.49296 1.96116 10.2098 1.25 12.0001 1.25C12.4283 1.25 12.8523 1.29069 13.2669 1.36993C12.88 1.76953 12.5665 2.24065 12.3481 2.76154C12.2326 2.75387 12.1165 2.75 12.0001 2.75C10.6077 2.75 9.27231 3.30312 8.28775 4.28769C7.30318 5.27226 6.75006 6.60761 6.75006 8C6.75006 11.6105 5.97536 13.9865 5.15848 15.4841C5.0014 15.7721 4.84336 16.0265 4.68988 16.25H19.3102C19.1568 16.0265 18.9987 15.7721 18.8416 15.4841C18.0974 14.1198 17.3883 12.0264 17.2679 8.93468C17.801 8.84303 18.302 8.6576 18.7534 8.39598Z" fill="#6B7586"/>
<circle cx="16.625" cy="4" r="3" fill="#DD0000"/>
</svg>
