<svg width="321" height="175" viewBox="0 0 321 175" fill="none" xmlns="http://www.w3.org/2000/svg">
<g opacity="0.45" clip-path="url(#clip0_32_14592)">
<path d="M143.129 182.846C143.129 182.846 150.842 113.851 210.199 98.6015C282.373 80.0045 320.79 137.544 320.79 137.544V137.99C320.79 137.99 314.679 206.688 242.541 224.987C182.923 240.237 143.129 183.293 143.129 183.293V182.846Z" fill="url(#paint0_linear_32_14592)" fill-opacity="0.12"/>
<path d="M143.24 182.846C143.24 182.846 135.527 113.851 76.1698 98.6017C3.95771 80.1534 -34.5703 137.544 -34.5703 137.544V137.99C-34.5703 137.99 -28.4595 206.688 43.6781 224.987C103.296 240.237 143.091 183.293 143.091 183.293L143.24 182.846Z" fill="url(#paint1_linear_32_14592)" fill-opacity="0.12"/>
<path d="M143.39 182.995C143.39 182.995 182.253 125.344 146.594 75.3553C103.371 14.6545 37.0466 33.6979 37.0466 33.6979L36.7485 33.9583C36.7485 33.9583 -3.12088 90.3446 40.1021 150.897C75.6119 200.885 142.98 183.293 142.98 183.293L143.39 182.995Z" fill="url(#paint2_linear_32_14592)" fill-opacity="0.12"/>
<path d="M142.981 182.995C142.981 182.995 104.117 125.344 139.776 75.3553C182.813 14.6545 249.175 33.6979 249.175 33.6979L249.473 33.9583C249.473 33.9583 289.193 90.3446 246.157 150.897C210.647 200.885 143.241 183.293 143.241 183.293L142.981 182.995Z" fill="url(#paint3_linear_32_14592)" fill-opacity="0.12"/>
<path d="M143.386 183.144C143.386 183.144 208.444 158.596 208.444 97.2998C208.444 22.9116 143.386 0 143.386 0H142.976C142.976 0 77.918 22.9488 77.918 97.2998C77.918 158.596 142.976 183.144 142.976 183.144H143.386Z" fill="url(#paint4_linear_32_14592)" fill-opacity="0.12"/>
</g>
<defs>
<linearGradient id="paint0_linear_32_14592" x1="143.11" y1="0" x2="143.11" y2="227.582" gradientUnits="userSpaceOnUse">
<stop stop-color="#4CADEA"/>
<stop offset="1" stop-color="#4CADEA" stop-opacity="0"/>
</linearGradient>
<linearGradient id="paint1_linear_32_14592" x1="143.11" y1="0" x2="143.11" y2="227.582" gradientUnits="userSpaceOnUse">
<stop stop-color="#8DBA39"/>
<stop offset="1" stop-color="#8DBA39" stop-opacity="0"/>
</linearGradient>
<linearGradient id="paint2_linear_32_14592" x1="143.11" y1="0" x2="143.11" y2="227.582" gradientUnits="userSpaceOnUse">
<stop stop-color="#E08D33"/>
<stop offset="1" stop-color="#E08D33" stop-opacity="0"/>
</linearGradient>
<linearGradient id="paint3_linear_32_14592" x1="143.11" y1="0" x2="143.11" y2="227.582" gradientUnits="userSpaceOnUse">
<stop stop-color="#2248B4"/>
<stop offset="1" stop-color="#2248B4" stop-opacity="0"/>
</linearGradient>
<linearGradient id="paint4_linear_32_14592" x1="143.11" y1="0" x2="143.11" y2="227.582" gradientUnits="userSpaceOnUse">
<stop stop-color="#C04140"/>
<stop offset="1" stop-color="#C04140" stop-opacity="0"/>
</linearGradient>
<clipPath id="clip0_32_14592">
<rect width="321" height="175" fill="white"/>
</clipPath>
</defs>
</svg>
