<svg width="24" height="24" viewBox="0 0 24 24" fill="none" xmlns="http://www.w3.org/2000/svg">
<path fill-rule="evenodd" clip-rule="evenodd" d="M12.0031 1.66699C8.11099 1.66699 4.95581 4.82217 4.95581 8.71427C4.95581 10.8268 5.88634 12.7229 7.35708 14.0133C7.83993 14.437 8.10632 14.9294 8.10632 15.3917V15.8099C8.10632 16.2702 8.47941 16.6432 8.93965 16.6432C9.39989 16.6432 9.77298 16.2702 9.77298 15.8099V15.3917C9.77298 14.2842 9.15345 13.3722 8.45628 12.7605C7.33089 11.7731 6.62248 10.3269 6.62248 8.71427C6.62248 5.74264 9.03146 3.33366 12.0031 3.33366C14.9747 3.33366 17.3837 5.74264 17.3837 8.71427C17.3837 10.3269 16.6753 11.7731 15.5499 12.7605C14.8527 13.3722 14.2332 14.2842 14.2332 15.3917V15.8099C14.2332 16.2702 14.6063 16.6432 15.0665 16.6432C15.5268 16.6432 15.8999 16.2702 15.8999 15.8099V15.3917C15.8999 14.9294 16.1663 14.437 16.6491 14.0133C18.1198 12.7229 19.0504 10.8268 19.0504 8.71427C19.0504 4.82217 15.8952 1.66699 12.0031 1.66699ZM10.6016 20.6279C10.1414 20.6279 9.76831 21.001 9.76831 21.4613C9.76831 21.9215 10.1414 22.2946 10.6016 22.2946H13.3918C13.852 22.2946 14.2251 21.9215 14.2251 21.4613C14.2251 21.001 13.852 20.6279 13.3918 20.6279H10.6016ZM8.05737 18.6839C8.05737 18.2237 8.43047 17.8506 8.89071 17.8506H15.1066C15.5669 17.8506 15.94 18.2237 15.94 18.6839C15.94 19.1442 15.5669 19.5173 15.1066 19.5173H8.89071C8.43047 19.5173 8.05737 19.1442 8.05737 18.6839ZM12.6571 7.6234C12.8847 7.22338 12.7449 6.71459 12.3449 6.48698C11.9449 6.25936 11.4361 6.39912 11.2085 6.79913L9.87736 9.13849C9.73058 9.39644 9.73207 9.71299 9.88127 9.96955C10.0305 10.2261 10.3049 10.384 10.6016 10.384H11.8944L11.2085 11.5894C10.9809 11.9894 11.1207 12.4982 11.5207 12.7258C11.9207 12.9534 12.4295 12.8137 12.6571 12.4136L14.0516 9.96274C14.1984 9.70478 14.1969 9.38824 14.0477 9.13168C13.8985 8.87513 13.6241 8.71729 13.3273 8.71729H12.0346L12.6571 7.6234Z" fill="#F18A00"/>
</svg>
