<svg width="20" height="20" viewBox="0 0 20 20" fill="none" xmlns="http://www.w3.org/2000/svg">
<path fill-rule="evenodd" clip-rule="evenodd" d="M6.72064 2.03174C7.14143 2.03174 7.48254 2.37285 7.48254 2.79364V6.67398C7.48254 7.09477 7.14143 7.43589 6.72064 7.43589C6.29985 7.43589 5.95873 7.09477 5.95873 6.67398V5.69617H4.21052C3.78973 5.69617 3.44861 6.03728 3.44861 6.45807V8.45137H16.401V6.45807C16.401 6.03728 16.0599 5.69617 15.6391 5.69617H15.6159C15.1952 5.69617 14.854 5.35505 14.854 4.93426C14.854 4.51348 15.1952 4.17236 15.6159 4.17236H15.6391C16.9015 4.17236 17.9248 5.19571 17.9248 6.45807V15.6744C17.9248 16.9367 16.9015 17.9601 15.6391 17.9601H4.21052C2.94815 17.9601 1.9248 16.9367 1.9248 15.6744V6.45807C1.9248 5.19571 2.94815 4.17236 4.21052 4.17236H5.95873V2.79364C5.95873 2.37285 6.29985 2.03174 6.72064 2.03174ZM3.44861 9.97518V15.6744C3.44861 16.0952 3.78973 16.4363 4.21052 16.4363H15.6391C16.0599 16.4363 16.401 16.0952 16.401 15.6744V9.97518H3.44861Z" fill="#015AA9"/>
<path d="M8.9142 4.17236C8.49342 4.17236 8.1523 4.51348 8.1523 4.93426C8.1523 5.35505 8.49342 5.69617 8.9142 5.69617H12.7614V6.67421C12.7614 7.095 13.1025 7.43611 13.5233 7.43611C13.9441 7.43611 14.2852 7.095 14.2852 6.67421V2.79387C14.2852 2.37308 13.9441 2.03196 13.5233 2.03196C13.1025 2.03196 12.7614 2.37308 12.7614 2.79387V4.17236H8.9142Z" fill="#015AA9"/>
</svg>
