<svg width="20" height="20" viewBox="0 0 20 20" fill="none" xmlns="http://www.w3.org/2000/svg">
<g clip-path="url(#clip0_991_16384)">
<path fill-rule="evenodd" clip-rule="evenodd" d="M5.9375 0C6.45527 0 6.875 0.419733 6.875 0.9375V2.5H13.125V0.9375C13.125 0.419733 13.5447 0 14.0625 0C14.5803 0 15 0.419733 15 0.9375V2.5H16.5625C17.7706 2.5 18.75 3.47938 18.75 4.6875V17.8125C18.75 19.0206 17.7706 20 16.5625 20H3.4375C2.22938 20 1.25 19.0206 1.25 17.8125V4.6875C1.25 3.47938 2.22938 2.5 3.4375 2.5H5V0.9375C5 0.419733 5.41973 0 5.9375 0ZM16.5625 4.375C16.7351 4.375 16.875 4.51491 16.875 4.6875V7.5H3.125V4.6875C3.125 4.51491 3.26491 4.375 3.4375 4.375H16.5625ZM3.125 9.375V17.8125C3.125 17.9851 3.26491 18.125 3.4375 18.125H16.5625C16.7351 18.125 16.875 17.9851 16.875 17.8125V9.375H3.125Z" fill="#764FDB" stroke="#764FDB" stroke-width="0.2" stroke-linecap="round"/>
</g>
<defs>
<clipPath id="clip0_991_16384">
<rect width="20" height="20" fill="white"/>
</clipPath>
</defs>
</svg>
