<svg width="48" height="31" viewBox="0 0 48 31" fill="none" xmlns="http://www.w3.org/2000/svg">
<g clip-path="url(#clip0_32_14737)">
<path d="M23.8844 24.6205C23.8844 24.6205 24.9211 15.3302 32.8992 13.2768C42.6002 10.7727 47.7637 18.5204 47.7637 18.5204V18.5805C47.7637 18.5805 46.9424 27.8307 37.2464 30.2948C29.2332 32.3482 23.8844 24.6806 23.8844 24.6806V24.6205Z" fill="#4CADEA"/>
<path d="M23.8994 24.6205C23.8994 24.6205 22.8627 15.3302 14.8845 13.2768C5.17853 10.7928 0 18.5205 0 18.5205V18.5806C0 18.5806 0.821352 27.8308 10.5173 30.2948C18.5305 32.3482 23.8793 24.6806 23.8793 24.6806L23.8994 24.6205Z" fill="#8DBA39"/>
<path d="M23.9195 24.6405C23.9195 24.6405 29.1431 16.8777 24.3502 10.1467C18.5407 1.97325 9.62599 4.53747 9.62599 4.53747L9.58593 4.57252C9.58593 4.57252 4.2271 12.165 10.0367 20.3184C14.8095 27.0495 23.8644 24.6806 23.8644 24.6806L23.9195 24.6405Z" fill="#E08D33"/>
<path d="M23.8645 24.6405C23.8645 24.6405 18.6409 16.8777 23.4338 10.1467C29.2183 1.97325 38.138 4.53747 38.138 4.53747L38.1781 4.57252C38.1781 4.57252 43.5169 12.165 37.7323 20.3184C32.9595 27.0495 23.8996 24.6806 23.8996 24.6806L23.8645 24.6405Z" fill="#2248B4"/>
<path d="M23.919 24.6605C23.919 24.6605 32.6634 21.3551 32.6634 13.1015C32.6634 3.08507 23.919 0 23.919 0H23.8639C23.8639 0 15.1195 3.09008 15.1195 13.1015C15.1195 21.3551 23.8639 24.6605 23.8639 24.6605H23.919Z" fill="#C04140"/>
</g>
<defs>
<clipPath id="clip0_32_14737">
<rect width="48" height="31" fill="white"/>
</clipPath>
</defs>
</svg>
