<svg width="24" height="24" viewBox="0 0 24 24" fill="none" xmlns="http://www.w3.org/2000/svg">
<path d="M14.8755 17.8455C15.4579 17.2721 15.1436 15.9551 14.1923 14.4338C14.538 14.3798 14.8613 14.2973 15.1058 14.1709C15.9855 13.7168 16.5795 12.8891 17.0291 12.033C17.5125 11.1146 17.8369 10.1051 18.4676 9.26888C18.5741 9.1275 18.6806 9.00075 18.7868 8.8815C20.1476 9.04462 21.234 9.33712 21.234 9.33712L21.6491 8.28225C21.1252 8.0942 20.5879 7.94542 20.0419 7.83712C20.3764 7.647 20.5946 7.58775 20.5946 7.58775L20.2013 6.52425C19.5705 6.79088 19.0586 7.18425 18.63 7.65525C17.028 7.56562 15.4148 7.88475 14.142 8.87175C13.185 9.61425 12.5385 10.6436 11.9303 11.6734C11.3913 11.1445 10.8174 10.6525 10.2124 10.2008C10.3271 10.0121 10.4501 9.84263 10.5825 9.71175C11.3824 8.92425 12.4376 8.42063 13.1299 7.5195C14.5849 5.62725 13.5206 2.661 12.3236 1.125C12.1091 1.33162 11.7544 1.63275 11.4874 1.8705C12.7598 3.17362 13.6496 5.45513 12.6525 7.15987C12.0953 8.11275 11.0655 8.7105 10.3455 9.52913C10.221 9.67125 10.1096 9.85125 10.0088 10.05C8.12588 8.69962 6.39788 8.15625 5.71313 8.8305C5.64513 8.90006 5.58913 8.9804 5.54738 9.06825L5.54475 9.06562L5.52638 9.11925C5.50088 9.17737 5.47763 9.23775 5.46188 9.30375L0.75 22.875L14.4983 18.0682L14.4945 18.0645C14.6423 18.0169 14.7724 17.9468 14.8755 17.8455ZM3.48488 21.1245L2.33738 20.5897L3.11175 18.3585L6.66338 20.013L3.48488 21.1245ZM9.8415 18.9019L3.88688 16.1273L4.66125 13.8964L9.111 16.1299C6.45488 14.4011 5.43563 11.6648 5.43563 11.6648L5.70038 10.9024C6.171 12.093 7.20638 13.5757 8.62913 14.9752C10.0639 16.3875 11.5845 17.4105 12.7999 17.8676L9.8415 18.9019ZM12.1286 11.8744C12.7504 10.983 13.3913 10.0834 14.2823 9.44325C15.1305 8.8335 16.5075 8.72213 17.8129 8.79525C17.3719 9.5655 17.046 10.4201 16.7535 11.241C16.3999 12.2347 15.9259 13.2653 15.0221 13.8746C14.7784 14.0389 14.4368 14.1589 14.0719 14.2477C13.5705 13.4794 12.9128 12.6671 12.1286 11.8744Z" fill="#4CA90C"/>
<path d="M8.63739 8.2501C9.01314 8.2501 7.88665 7.1251 8.07489 6.13847C8.7964 6.08297 10.4456 6.4081 9.48565 5.0896C10.5716 5.28085 11.1341 4.4701 10.1089 3.70172C10.4501 3.72572 10.9804 3.08222 10.5998 3.00085C9.38027 2.74247 8.90289 3.4021 9.6769 4.35347C8.86314 4.20197 8.19977 4.58035 8.81102 5.4301C6.46127 5.13722 7.79815 8.2501 8.63739 8.2501ZM16.7044 7.25035C17.0565 7.09135 16.4591 6.04097 16.2649 5.77247C17.751 5.61347 17.6948 5.1706 16.7629 4.22185C19.2964 4.30697 16.8413 2.86697 17.1855 2.29697C17.4836 1.80272 18.3983 2.32097 18.3135 2.04572C18.0278 1.1251 15.3173 1.7476 17.0325 3.4666C15.5355 3.49585 15.3919 3.98522 16.5075 4.9996C14.5643 5.02097 16.1498 7.5001 16.7044 7.25035ZM23.1364 10.9595C22.5431 11.1256 22.4516 11.0633 22.5308 11.654C21.1605 11.0232 19.7108 10.1461 20.5905 12.47C19.0343 11.5433 19.1119 12.3548 18.8209 13.6902C18.4421 13.3951 17.904 12.6173 17.904 12.6173L17.334 13.1015C17.334 13.1015 18.3784 14.5745 18.894 14.4908C19.3474 14.4177 19.5941 13.5608 19.6193 12.8056C21.063 13.415 21.7541 13.4963 21.0938 11.7143C22.248 12.3627 23.6633 12.9346 23.1364 10.9595ZM2.26839 4.28897L3.32889 5.34985L2.26839 6.41035L1.20752 5.34985L2.26839 4.28897ZM4.80902 8.69935L3.74777 9.75985L2.68689 8.6986L3.74814 7.63772L4.80902 8.69935ZM6.45752 2.6251L7.51802 3.6856L6.45714 4.74685L5.39664 3.6856L6.45752 2.6251ZM18.0041 17.4316L16.9429 16.3707L18.0034 15.3095L19.0646 16.3703L18.0041 17.4316ZM15.6394 21.0698L14.5789 20.0093L15.6394 18.9485L16.7003 20.0093L15.6394 21.0698ZM20.2924 21.9076L19.2311 20.8467L20.2913 19.7855L21.3525 20.8463L20.2924 21.9076ZM21.3529 17.0761L20.2924 16.0152L21.3529 14.9547L22.4134 16.0152L21.3529 17.0761ZM19.5825 3.7501L20.643 4.8106L19.5821 5.87147L18.5216 4.8106L19.5825 3.7501Z" fill="#4CA90C"/>
</svg>
