<svg width="24" height="25" viewBox="0 0 24 25" fill="none" xmlns="http://www.w3.org/2000/svg">
<path d="M14.8755 18.3455C15.4579 17.7721 15.1436 16.4551 14.1923 14.9338C14.538 14.8798 14.8613 14.7973 15.1058 14.6709C15.9855 14.2168 16.5795 13.3891 17.0291 12.533C17.5125 11.6146 17.8369 10.6051 18.4676 9.76888C18.5741 9.6275 18.6806 9.50075 18.7868 9.3815C20.1476 9.54462 21.234 9.83712 21.234 9.83712L21.6491 8.78225C21.1252 8.5942 20.5879 8.44542 20.0419 8.33712C20.3764 8.147 20.5946 8.08775 20.5946 8.08775L20.2013 7.02425C19.5705 7.29088 19.0586 7.68425 18.63 8.15525C17.028 8.06562 15.4148 8.38475 14.142 9.37175C13.185 10.1143 12.5385 11.1436 11.9303 12.1734C11.3913 11.6445 10.8174 11.1525 10.2124 10.7008C10.3271 10.5121 10.4501 10.3426 10.5825 10.2118C11.3824 9.42425 12.4376 8.92063 13.1299 8.0195C14.5849 6.12725 13.5206 3.161 12.3236 1.625C12.1091 1.83162 11.7544 2.13275 11.4874 2.3705C12.7598 3.67362 13.6496 5.95513 12.6525 7.65987C12.0953 8.61275 11.0655 9.2105 10.3455 10.0291C10.221 10.1712 10.1096 10.3512 10.0088 10.55C8.12588 9.19962 6.39788 8.65625 5.71313 9.3305C5.64513 9.40006 5.58913 9.4804 5.54738 9.56825L5.54475 9.56562L5.52638 9.61925C5.50088 9.67737 5.47763 9.73775 5.46188 9.80375L0.75 23.375L14.4983 18.5682L14.4945 18.5645C14.6423 18.5169 14.7724 18.4468 14.8755 18.3455ZM3.48488 21.6245L2.33738 21.0897L3.11175 18.8585L6.66338 20.513L3.48488 21.6245ZM9.8415 19.4019L3.88688 16.6273L4.66125 14.3964L9.111 16.6299C6.45488 14.9011 5.43563 12.1648 5.43563 12.1648L5.70038 11.4024C6.171 12.593 7.20638 14.0757 8.62913 15.4752C10.0639 16.8875 11.5845 17.9105 12.7999 18.3676L9.8415 19.4019ZM12.1286 12.3744C12.7504 11.483 13.3913 10.5834 14.2823 9.94325C15.1305 9.3335 16.5075 9.22213 17.8129 9.29525C17.3719 10.0655 17.046 10.9201 16.7535 11.741C16.3999 12.7347 15.9259 13.7653 15.0221 14.3746C14.7784 14.5389 14.4368 14.6589 14.0719 14.7477C13.5705 13.9794 12.9128 13.1671 12.1286 12.3744Z" fill="#F18A00"/>
<path d="M8.63691 8.7501C9.01266 8.7501 7.88616 7.6251 8.07441 6.63847C8.79591 6.58297 10.4452 6.9081 9.48516 5.5896C10.5712 5.78085 11.1337 4.9701 10.1084 4.20172C10.4497 4.22572 10.9799 3.58222 10.5993 3.50085C9.37978 3.24247 8.90241 3.9021 9.67641 4.85347C8.86266 4.70197 8.19928 5.08035 8.81053 5.9301C6.46078 5.63722 7.79766 8.7501 8.63691 8.7501ZM16.7039 7.75035C17.056 7.59135 16.4587 6.54097 16.2644 6.27247C17.7505 6.11347 17.6943 5.6706 16.7624 4.72185C19.2959 4.80697 16.8408 3.36697 17.185 2.79697C17.4832 2.30272 18.3978 2.82097 18.313 2.54572C18.0273 1.6251 15.3168 2.2476 17.032 3.9666C15.535 3.99585 15.3914 4.48522 16.507 5.4996C14.5638 5.52097 16.1493 8.0001 16.7039 7.75035ZM23.1359 11.4595C22.5427 11.6256 22.4512 11.5633 22.5303 12.154C21.16 11.5232 19.7103 10.6461 20.59 12.97C19.0338 12.0433 19.1114 12.8548 18.8204 14.1902C18.4417 13.8951 17.9035 13.1173 17.9035 13.1173L17.3335 13.6015C17.3335 13.6015 18.3779 15.0745 18.8935 14.9908C19.3469 14.9177 19.5937 14.0608 19.6188 13.3056C21.0625 13.915 21.7537 13.9963 21.0933 12.2143C22.2475 12.8627 23.6628 13.4346 23.1359 11.4595ZM2.26791 4.78897L3.32841 5.84985L2.26791 6.91035L1.20703 5.84985L2.26791 4.78897ZM4.80853 9.19935L3.74728 10.2598L2.68641 9.1986L3.74766 8.13772L4.80853 9.19935ZM6.45703 3.1251L7.51753 4.1856L6.45666 5.24685L5.39616 4.1856L6.45703 3.1251ZM18.0037 17.9316L16.9424 16.8707L18.0029 15.8095L19.0642 16.8703L18.0037 17.9316ZM15.6389 21.5698L14.5784 20.5093L15.6389 19.4485L16.6998 20.5093L15.6389 21.5698ZM20.2919 22.4076L19.2307 21.3467L20.2908 20.2855L21.352 21.3463L20.2919 22.4076ZM21.3524 17.5761L20.2919 16.5152L21.3524 15.4547L22.4129 16.5152L21.3524 17.5761ZM19.582 4.2501L20.6425 5.3106L19.5817 6.37147L18.5212 5.3106L19.582 4.2501Z" fill="#F18A00"/>
</svg>
