<svg width="135" height="121" viewBox="0 0 135 121" fill="none" xmlns="http://www.w3.org/2000/svg">
<g clip-path="url(#clip0_32_17741)">
<path d="M33.7009 30.6938C31.3968 23.7904 24.2814 19.9536 19.6005 21.5231C14.9196 23.0926 11.54 30.4484 13.8441 37.3518C15.9768 43.7417 22.4394 47.4306 26.8851 46.7723C26.853 46.8282 26.8319 46.8897 26.8229 46.9535L26.687 48.09C26.6766 48.1766 26.6885 48.2644 26.7216 48.3451C26.7546 48.4259 26.8077 48.4968 26.8758 48.5512C26.9438 48.6055 27.0246 48.6416 27.1105 48.6559C27.1964 48.6701 27.2845 48.6622 27.3664 48.6327L29.6565 47.8097C29.7385 47.7802 29.8115 47.7303 29.8688 47.6646C29.9261 47.5989 29.9656 47.5196 29.9837 47.4342C30.0018 47.3489 29.9978 47.2603 29.9722 47.1769C29.9465 47.0935 29.9 47.0181 29.8371 46.9578L29.0116 46.167C28.9822 46.14 28.9498 46.1167 28.915 46.0974C32.8802 43.9556 35.8383 37.0976 33.7009 30.6938Z" fill="#F2F2F2"/>
<path d="M25.3598 25.6149C27.2732 26.6047 28.7345 28.293 29.442 30.3314C30.1495 32.3698 30.0492 34.6027 29.1617 36.5691C28.9636 37.0212 29.6923 37.259 29.8891 36.8098C30.8209 34.6822 30.9157 32.2801 30.1545 30.0853C29.3932 27.8906 27.8323 26.0654 25.7847 24.9758C25.3525 24.7463 24.9244 25.3836 25.3598 25.6149Z" fill="white"/>
<path d="M126.986 20.6308C124.682 13.7274 117.567 9.89058 112.886 11.4601C108.205 13.0296 104.825 20.3854 107.13 27.2888C109.262 33.6787 115.725 37.3676 120.171 36.7093C120.138 36.7652 120.117 36.8267 120.108 36.8906L119.972 38.027C119.962 38.1136 119.974 38.2014 120.007 38.2822C120.04 38.3629 120.093 38.4338 120.161 38.4882C120.229 38.5426 120.31 38.5786 120.396 38.5929C120.482 38.6071 120.57 38.5992 120.652 38.5697L122.942 37.7467C123.024 37.7172 123.097 37.6673 123.154 37.6016C123.212 37.5359 123.251 37.4566 123.269 37.3712C123.287 37.2859 123.283 37.1973 123.258 37.1139C123.232 37.0306 123.185 36.9551 123.123 36.8948L122.297 36.104C122.268 36.077 122.235 36.0537 122.2 36.0344C126.166 33.8926 129.124 27.0346 126.986 20.6308Z" fill="#F2F2F2"/>
<path d="M118.645 15.5519C120.559 16.5417 122.02 18.23 122.728 20.2684C123.435 22.3068 123.335 24.5397 122.447 26.5061C122.249 26.9582 122.978 27.196 123.175 26.7468C124.106 24.6192 124.201 22.2171 123.44 20.0223C122.679 17.8276 121.118 16.0024 119.07 14.9128C118.638 14.6833 118.21 15.3206 118.645 15.5519Z" fill="white"/>
<path d="M72.8139 9.51993C70.5098 2.61654 63.3944 -1.22026 58.7135 0.34925C54.0326 1.91876 50.653 9.27455 52.9571 16.1779C55.0898 22.5679 61.5524 26.2568 65.9981 25.5985C65.966 25.6544 65.9449 25.7159 65.9359 25.7797L65.8 26.9161C65.7896 27.0028 65.8015 27.0906 65.8346 27.1713C65.8676 27.252 65.9207 27.323 65.9887 27.3773C66.0568 27.4317 66.1376 27.4678 66.2235 27.482C66.3094 27.4963 66.3975 27.4883 66.4794 27.4589L68.7695 26.6359C68.8514 26.6064 68.9245 26.5565 68.9818 26.4907C69.039 26.425 69.0786 26.3457 69.0967 26.2604C69.1148 26.175 69.1108 26.0865 69.0851 26.0031C69.0595 25.9197 69.013 25.8443 68.9501 25.784L68.1246 24.9931C68.0952 24.9662 68.0628 24.9428 68.028 24.9235C71.9932 22.7818 74.9513 15.9238 72.8139 9.51993Z" fill="#F2F2F2"/>
<path d="M64.4727 4.44106C66.3862 5.43085 67.8475 7.1192 68.555 9.1576C69.2625 11.196 69.1621 13.4289 68.2747 15.3953C68.0765 15.8474 68.8053 16.0852 69.0021 15.636C69.9339 13.5083 70.0287 11.1063 69.2674 8.91151C68.5062 6.71674 66.9453 4.89157 64.8977 3.80201C64.4655 3.57247 64.0373 4.20981 64.4727 4.44106Z" fill="white"/>
<path d="M61.2578 42.7381C61.561 42.7381 61.8067 42.4917 61.8067 42.1879C61.8067 41.884 61.561 41.6377 61.2578 41.6377C60.9546 41.6377 60.7089 41.884 60.7089 42.1879C60.7089 42.4917 60.9546 42.7381 61.2578 42.7381Z" fill="#CCCCCC"/>
<path d="M60.0868 64.8085C60.6857 64.8085 61.1712 64.3219 61.1712 63.7217C61.1712 63.1214 60.6857 62.6348 60.0868 62.6348C59.4879 62.6348 59.0024 63.1214 59.0024 63.7217C59.0024 64.3219 59.4879 64.8085 60.0868 64.8085Z" fill="#CCCCCC"/>
<path d="M41.9328 60.6233C42.2789 60.6233 42.5594 60.3421 42.5594 59.9952C42.5594 59.6484 42.2789 59.3672 41.9328 59.3672C41.5868 59.3672 41.3062 59.6484 41.3062 59.9952C41.3062 60.3421 41.5868 60.6233 41.9328 60.6233Z" fill="#CCCCCC"/>
<path d="M51.4526 50.3398C51.8274 50.3398 52.1312 50.0353 52.1312 49.6596C52.1312 49.284 51.8274 48.9795 51.4526 48.9795C51.0779 48.9795 50.774 49.284 50.774 49.6596C50.774 50.0353 51.0779 50.3398 51.4526 50.3398Z" fill="#CCCCCC"/>
<path d="M84.8446 90.1604C85.1478 90.1604 85.3936 89.9141 85.3936 89.6102C85.3936 89.3064 85.1478 89.0601 84.8446 89.0601C84.5415 89.0601 84.2957 89.3064 84.2957 89.6102C84.2957 89.9141 84.5415 90.1604 84.8446 90.1604Z" fill="#CCCCCC"/>
<path d="M66.8674 78.8471C67.4662 78.8471 67.9517 78.3605 67.9517 77.7602C67.9517 77.16 67.4662 76.6733 66.8674 76.6733C66.2685 76.6733 65.783 77.16 65.783 77.7602C65.783 78.3605 66.2685 78.8471 66.8674 78.8471Z" fill="#CCCCCC"/>
<path d="M79.2147 64.5393C79.5608 64.5393 79.8414 64.2581 79.8414 63.9112C79.8414 63.5644 79.5608 63.2832 79.2147 63.2832C78.8687 63.2832 78.5881 63.5644 78.5881 63.9112C78.5881 64.2581 78.8687 64.5393 79.2147 64.5393Z" fill="#CCCCCC"/>
<path d="M83.3366 78.038C83.7113 78.038 84.0151 77.7335 84.0151 77.3579C84.0151 76.9822 83.7113 76.6777 83.3366 76.6777C82.9618 76.6777 82.658 76.9822 82.658 77.3579C82.658 77.7335 82.9618 78.038 83.3366 78.038Z" fill="#CCCCCC"/>
<path d="M119.886 113.068C120.484 112.565 119.675 110.608 118.078 108.696C116.481 106.785 114.702 105.642 114.103 106.145C113.504 106.647 114.313 108.604 115.91 110.516C117.507 112.428 119.287 113.57 119.886 113.068Z" fill="#2F2E41"/>
<path d="M107.413 117.068C112.388 117.068 116.421 113.025 116.421 108.039C116.421 103.053 112.388 99.0103 107.413 99.0103C102.438 99.0103 98.405 103.053 98.405 108.039C98.405 113.025 102.438 117.068 107.413 117.068Z" fill="#2F2E41"/>
<path d="M111.227 115.125H108.49V120.039H111.227V115.125Z" fill="#2F2E41"/>
<path d="M105.752 115.125H103.016V120.039H105.752V115.125Z" fill="#2F2E41"/>
<path d="M108.946 120.953C110.206 120.953 111.227 120.569 111.227 120.096C111.227 119.623 110.206 119.239 108.946 119.239C107.687 119.239 106.666 119.623 106.666 120.096C106.666 120.569 107.687 120.953 108.946 120.953Z" fill="#2F2E41"/>
<path d="M103.472 120.839C104.732 120.839 105.753 120.455 105.753 119.982C105.753 119.508 104.732 119.125 103.472 119.125C102.213 119.125 101.192 119.508 101.192 119.982C101.192 120.455 102.213 120.839 103.472 120.839Z" fill="#2F2E41"/>
<path d="M104.584 96.6894C105.389 93.4427 108.939 91.5321 112.515 92.4219C116.09 93.3118 118.337 96.6651 117.532 99.9118C116.728 103.159 114.059 103.169 110.484 102.279C106.908 101.389 103.78 99.9361 104.584 96.6894Z" fill="#E6E6E6"/>
<path d="M101.337 105.784C101.672 105.077 100.121 103.637 97.8736 102.569C95.6261 101.5 93.5328 101.208 93.1982 101.915C92.8636 102.622 94.4143 104.061 96.6618 105.13C98.9093 106.198 101.003 106.491 101.337 105.784Z" fill="#2F2E41"/>
<path d="M106.067 109.144C107.725 109.144 109.07 107.796 109.07 106.134C109.07 104.471 107.725 103.124 106.067 103.124C104.408 103.124 103.063 104.471 103.063 106.134C103.063 107.796 104.408 109.144 106.067 109.144Z" fill="white"/>
<path d="M104.833 106.058C105.386 106.058 105.834 105.609 105.834 105.055C105.834 104.501 105.386 104.051 104.833 104.051C104.28 104.051 103.832 104.501 103.832 105.055C103.832 105.609 104.28 106.058 104.833 106.058Z" fill="#3F3D56"/>
<path d="M107.95 112.405C107.997 112.664 107.993 112.931 107.937 113.188C107.882 113.446 107.776 113.69 107.627 113.907C107.477 114.123 107.286 114.308 107.065 114.451C106.844 114.594 106.598 114.692 106.339 114.739C106.08 114.786 105.815 114.782 105.558 114.726C105.301 114.671 105.057 114.565 104.841 114.415C104.625 114.265 104.44 114.074 104.298 113.852C104.155 113.631 104.058 113.383 104.01 113.124L104.01 113.12C103.813 112.03 104.654 111.644 105.742 111.446C106.83 111.249 107.753 111.315 107.95 112.405Z" fill="white"/>
<path d="M33.355 101.727C34.2431 99.3979 34.3717 97.2835 33.6423 97.004C32.9129 96.7246 31.6016 98.386 30.7135 100.715C29.8254 103.044 29.6968 105.158 30.4262 105.438C31.1556 105.717 32.4669 104.056 33.355 101.727Z" fill="#2F2E41"/>
<path d="M23.7076 117.068C28.6826 117.068 32.7156 113.025 32.7156 108.039C32.7156 103.053 28.6826 99.0103 23.7076 99.0103C18.7326 99.0103 14.6996 103.053 14.6996 108.039C14.6996 113.025 18.7326 117.068 23.7076 117.068Z" fill="#2F2E41"/>
<path d="M22.3396 115.125H19.603V120.039H22.3396V115.125Z" fill="#2F2E41"/>
<path d="M27.8124 115.125H25.0758V120.039H27.8124V115.125Z" fill="#2F2E41"/>
<path d="M21.8835 120.953C23.143 120.953 24.164 120.569 24.164 120.096C24.164 119.623 23.143 119.239 21.8835 119.239C20.624 119.239 19.603 119.623 19.603 120.096C19.603 120.569 20.624 120.953 21.8835 120.953Z" fill="#2F2E41"/>
<path d="M27.3563 120.839C28.6158 120.839 29.6368 120.455 29.6368 119.982C29.6368 119.508 28.6158 119.125 27.3563 119.125C26.0968 119.125 25.0758 119.508 25.0758 119.982C25.0758 120.455 26.0968 120.839 27.3563 120.839Z" fill="#2F2E41"/>
<path d="M23.9364 108.839C25.6367 108.839 27.0151 107.457 27.0151 105.753C27.0151 104.049 25.6367 102.667 23.9364 102.667C22.2361 102.667 20.8578 104.049 20.8578 105.753C20.8578 107.457 22.2361 108.839 23.9364 108.839Z" fill="white"/>
<path d="M23.9366 106.782C24.5034 106.782 24.9629 106.321 24.9629 105.753C24.9629 105.185 24.5034 104.725 23.9366 104.725C23.3699 104.725 22.9104 105.185 22.9104 105.753C22.9104 106.321 23.3699 106.782 23.9366 106.782Z" fill="#3F3D56"/>
<path d="M14.9708 99.6426C14.2435 96.3777 16.5685 93.0787 20.164 92.274C23.7594 91.4694 27.2638 93.4638 27.9911 96.7286C28.7185 99.9935 26.3356 101.198 22.7402 102.002C19.1447 102.807 15.6982 102.908 14.9708 99.6426Z" fill="#E6E6E6"/>
<path d="M17.6318 105.784C17.9665 105.077 16.4158 103.637 14.1683 102.569C11.9208 101.5 9.82751 101.208 9.49288 101.915C9.15824 102.622 10.7089 104.061 12.9564 105.13C15.204 106.198 17.2972 106.491 17.6318 105.784Z" fill="#2F2E41"/>
<path d="M19.2835 111.296C19.2835 112.179 21.5536 113.924 24.0726 113.924C26.5915 113.924 28.9533 111.437 28.9533 110.553C28.9533 109.669 26.5915 110.724 24.0726 110.724C21.5536 110.724 19.2835 110.412 19.2835 111.296Z" fill="white"/>
<path d="M66.7363 108.472C71.7113 108.472 75.7443 104.43 75.7443 99.4437C75.7443 94.4573 71.7113 90.415 66.7363 90.415C61.7613 90.415 57.7283 94.4573 57.7283 99.4437C57.7283 104.43 61.7613 108.472 66.7363 108.472Z" fill="#2F2E41"/>
<path d="M65.3682 106.529H62.6316V111.444H65.3682V106.529Z" fill="#2F2E41"/>
<path d="M70.841 106.529H68.1045V111.444H70.841V106.529Z" fill="#2F2E41"/>
<path d="M64.9121 112.358C66.1716 112.358 67.1926 111.974 67.1926 111.501C67.1926 111.027 66.1716 110.644 64.9121 110.644C63.6526 110.644 62.6316 111.027 62.6316 111.501C62.6316 111.974 63.6526 112.358 64.9121 112.358Z" fill="#2F2E41"/>
<path d="M70.385 112.244C71.6444 112.244 72.6655 111.86 72.6655 111.386C72.6655 110.913 71.6444 110.529 70.385 110.529C69.1255 110.529 68.1044 110.913 68.1044 111.386C68.1044 111.86 69.1255 112.244 70.385 112.244Z" fill="#2F2E41"/>
<path d="M57.9979 91.0469C57.2705 87.782 59.5956 84.483 63.1911 83.6783C66.7865 82.8736 70.2908 84.8681 71.0182 88.133C71.7455 91.3978 69.3627 92.602 65.7673 93.4067C62.1718 94.2113 58.7252 94.3118 57.9979 91.0469Z" fill="#025BA9"/>
<path d="M76.4438 95.4981C78.3947 93.5413 79.4793 91.4574 78.8664 90.8435C78.2535 90.2297 76.1752 91.3184 74.2243 93.2752C72.2735 95.232 71.1889 97.316 71.8018 97.9298C72.4147 98.5436 74.493 97.4549 76.4438 95.4981Z" fill="#2F2E41"/>
<path d="M59.4759 98.5588C60.0888 97.945 59.0042 95.8611 57.0533 93.9042C55.1025 91.9474 53.0242 90.8587 52.4113 91.4725C51.7984 92.0864 52.883 94.1703 54.8338 96.1271C56.7847 98.0839 58.863 99.1726 59.4759 98.5588Z" fill="#2F2E41"/>
<path d="M121.5 42.1419C121.201 32.8842 114.875 25.5768 107.37 25.8204C90.6682 26.3164 90.2604 57.0151 106.386 59.2203L106.044 61.9405L111.025 61.7788L110.508 59.0865C116.995 57.6495 121.771 50.535 121.5 42.1419Z" fill="#F18A01"/>
<path d="M99.066 47.2749L97.1845 47.336C96.447 43.8216 96.3302 40.2048 96.8394 36.6499L98.7208 36.5889C98.0259 40.31 98.141 43.8721 99.066 47.2749Z" fill="white"/>
<path d="M111.27 59.0444L105.625 59.2275L105.666 60.4847L111.31 60.3016L111.27 59.0444Z" fill="#3F3D56"/>
<path d="M94.8754 107.183L94.3071 106.917L108.282 59.418L108.85 59.6848L94.8754 107.183Z" fill="#3F3D56"/>
<path d="M133.066 49.9707C136.479 41.363 133.589 32.132 126.611 29.3528C111.1 23.1254 98.5001 51.1091 112.407 59.5825L111.01 61.94L115.641 63.7843L116.24 61.1092C122.76 62.3869 129.972 57.7747 133.066 49.9707Z" fill="#025BA9"/>
<path d="M110.452 45.7005L108.702 45.0038C109.426 41.4864 110.759 38.1235 112.641 35.0679L114.391 35.7646C112.272 38.8985 110.959 42.2104 110.452 45.7005Z" fill="white"/>
<path d="M111.707 59.2842L111.243 60.4531L116.491 62.5434L116.955 61.3745L111.707 59.2842Z" fill="#3F3D56"/>
<path d="M94.7649 105.933L94.2196 105.622L113.73 60.9961L114.275 61.307L94.7649 105.933Z" fill="#3F3D56"/>
<path d="M27.0199 42.7406C23.3276 34.2495 14.7544 29.8037 7.87128 32.8106C-7.46471 39.4599 3.47873 68.1351 19.2751 64.2093L19.9612 66.8633L24.529 64.8679L23.0564 62.5575C28.5537 58.8188 30.3674 50.4387 27.0199 42.7406Z" fill="#025BA9"/>
<path d="M8.06652 55.8222L6.34086 56.576C4.35936 53.5839 2.91684 50.2665 2.07886 46.7748L3.80452 46.021C4.53129 49.736 5.95196 53.0031 8.06652 55.8222Z" fill="white"/>
<path d="M23.7469 62.236L18.5699 64.4976L19.0713 65.6506L24.2483 63.3891L23.7469 62.236Z" fill="#3F3D56"/>
<path d="M35.7254 107.305C35.6447 107.325 35.5593 107.312 35.488 107.269C35.4167 107.226 35.3655 107.156 35.3454 107.075L21.7066 63.7603L22.3156 63.6089L35.9544 106.924C35.9643 106.964 35.9663 107.006 35.9601 107.046C35.954 107.087 35.9399 107.127 35.9186 107.162C35.8974 107.197 35.8694 107.228 35.8362 107.253C35.8031 107.277 35.7654 107.295 35.7254 107.305Z" fill="#3F3D56"/>
<path d="M39.3708 121H6.53265C6.47717 121 6.42398 120.978 6.38475 120.939C6.34553 120.9 6.32349 120.846 6.32349 120.791C6.32349 120.735 6.34553 120.682 6.38475 120.642C6.42398 120.603 6.47717 120.581 6.53265 120.581H39.3708C39.4263 120.581 39.4795 120.603 39.5187 120.642C39.5579 120.682 39.58 120.735 39.58 120.791C39.58 120.846 39.5579 120.9 39.5187 120.939C39.4795 120.978 39.4263 121 39.3708 121Z" fill="#CCCCCC"/>
<path d="M122.826 121H89.9875C89.9321 121 89.8789 120.978 89.8396 120.939C89.8004 120.9 89.7784 120.846 89.7784 120.791C89.7784 120.735 89.8004 120.682 89.8396 120.642C89.8789 120.603 89.9321 120.581 89.9875 120.581H122.826C122.881 120.581 122.934 120.603 122.974 120.642C123.013 120.682 123.035 120.735 123.035 120.791C123.035 120.846 123.013 120.9 122.974 120.939C122.934 120.978 122.881 121 122.826 121Z" fill="#CCCCCC"/>
<path d="M83.7128 112.405H50.8746C50.8192 112.405 50.7659 112.383 50.7267 112.343C50.6875 112.304 50.6655 112.251 50.6655 112.195C50.6655 112.139 50.6875 112.086 50.7267 112.047C50.7659 112.007 50.8192 111.985 50.8746 111.985H83.7128C83.7682 111.985 83.8214 112.007 83.8607 112.047C83.8999 112.086 83.9219 112.139 83.9219 112.195C83.9219 112.251 83.8999 112.304 83.8607 112.343C83.8214 112.383 83.7682 112.405 83.7128 112.405Z" fill="#CCCCCC"/>
<path d="M66.358 101.25C68.0583 101.25 69.4367 99.8681 69.4367 98.1639C69.4367 96.4597 68.0583 95.0781 66.358 95.0781C64.6577 95.0781 63.2794 96.4597 63.2794 98.1639C63.2794 99.8681 64.6577 101.25 66.358 101.25Z" fill="white"/>
<path d="M66.3583 99.1929C66.925 99.1929 67.3845 98.7324 67.3845 98.1643C67.3845 97.5963 66.925 97.1357 66.3583 97.1357C65.7915 97.1357 65.332 97.5963 65.332 98.1643C65.332 98.7324 65.7915 99.1929 66.3583 99.1929Z" fill="#3F3D56"/>
<path d="M68.8019 103.871C68.897 104.395 68.7806 104.935 68.4785 105.372C68.1763 105.81 67.7131 106.109 67.1907 106.205C66.6682 106.3 66.1294 106.183 65.6928 105.881C65.2561 105.578 64.9574 105.113 64.8623 104.59L64.8616 104.586C64.6646 103.495 65.5059 103.109 66.5939 102.912C67.682 102.715 68.6049 102.78 68.8019 103.871Z" fill="white"/>
</g>
<defs>
<clipPath id="clip0_32_17741">
<rect width="134" height="121" fill="white" transform="translate(0.5)"/>
</clipPath>
</defs>
</svg>
