<svg width="20" height="20" viewBox="0 0 20 20" fill="none" xmlns="http://www.w3.org/2000/svg">
<path fill-rule="evenodd" clip-rule="evenodd" d="M2.22316 2.02589C2.5207 1.72835 3.00311 1.72835 3.30065 2.02589L17.7768 16.5021C18.0744 16.7996 18.0744 17.282 17.7768 17.5796C17.4793 17.8771 16.9969 17.8771 16.6994 17.5796L13.6783 14.5585C12.5612 15.1887 11.3184 15.5663 9.99998 15.5663C6.69697 15.5663 3.89713 13.2193 2.23523 10.3661C2.09718 10.129 2.09718 9.83613 2.23523 9.59912C3.01797 8.25524 4.0403 7.03979 5.24137 6.12159L2.22316 3.10338C1.92561 2.80584 1.92561 2.32343 2.22316 2.02589ZM6.3302 7.21043C5.3549 7.9189 4.48548 8.87923 3.78514 9.98266C5.30436 12.3781 7.57619 14.0425 9.99998 14.0425C10.8811 14.0425 11.7387 13.8252 12.5503 13.4305L11.1071 11.9873C10.781 12.1663 10.4066 12.2682 10.0084 12.2682H10.0001C8.73769 12.2682 7.71434 11.2448 7.71434 9.98247C7.71434 9.58206 7.8173 9.2057 7.99819 8.87841L6.3302 7.21043ZM9.99998 4.39871C9.57919 4.39871 9.23807 4.73982 9.23807 5.16061C9.23807 5.5814 9.57919 5.92251 9.99998 5.92251C12.4237 5.92251 14.6956 7.58704 16.2148 9.98249C15.9102 10.4624 15.5729 10.9164 15.2078 11.3348C14.9312 11.6519 14.964 12.1332 15.2811 12.4098C15.5982 12.6865 16.0795 12.6536 16.3561 12.3366C16.8836 11.7318 17.3561 11.0675 17.7647 10.3661C17.9028 10.129 17.9028 9.83613 17.7647 9.59912C16.1028 6.74586 13.303 4.39871 9.99998 4.39871Z" fill="#2F3031"/>
</svg>
