<svg width="20" height="20" viewBox="0 0 20 20" fill="none" xmlns="http://www.w3.org/2000/svg">
<path fill-rule="evenodd" clip-rule="evenodd" d="M9.99994 14.4405C7.34889 14.4405 4.86404 12.62 3.20239 9.99996C4.86406 7.37987 7.34891 5.55924 9.99994 5.55924C12.651 5.55924 15.1358 7.37987 16.7975 9.99996C15.1358 12.62 12.651 14.4405 9.99994 14.4405ZM9.99994 3.89258C6.38724 3.89258 3.32492 6.45978 1.50722 9.58054C1.35623 9.83977 1.35623 10.1601 1.50722 10.4194C3.32494 13.5402 6.38727 16.1071 9.99994 16.1071C13.6126 16.1071 16.6749 13.5402 18.4927 10.4194C18.6436 10.1601 18.6436 9.83977 18.4927 9.58054C16.675 6.45978 13.6126 3.89258 9.99994 3.89258ZM10 7.49984C8.61931 7.49984 7.50002 8.61912 7.50002 9.99984C7.50002 11.3805 8.61931 12.4998 10 12.4998H10.0084C11.3891 12.4998 12.5084 11.3805 12.5084 9.99984C12.5084 8.61912 11.3891 7.49984 10.0084 7.49984H10Z" fill="#2F3031"/>
</svg>
