<svg width="247" height="150" viewBox="0 0 247 150" fill="none" xmlns="http://www.w3.org/2000/svg">
<path d="M141.757 136.261C141.757 136.261 133.77 83.476 174.943 60.3039C224.996 32.0875 265.059 67.1585 265.059 67.1585L265.148 67.49C265.148 67.49 274.269 119.735 224.184 147.723C182.817 170.947 141.846 136.593 141.846 136.593L141.757 136.261Z" fill="url(#paint0_linear_32_19558)" fill-opacity="0.12"/>
<path d="M141.84 136.239C141.84 136.239 122.364 86.5323 75.1218 87.0511C17.6684 87.7594 0.395437 138.075 0.395437 138.075L0.484266 138.407C0.484266 138.407 18.7076 188.212 76.076 187.408C123.513 186.838 141.818 136.601 141.818 136.601L141.84 136.239Z" fill="url(#paint1_linear_32_19558)" fill-opacity="0.12"/>
<path d="M141.982 136.32C141.982 136.32 159.453 85.7439 122.946 55.7307C78.6738 19.2708 33.0666 46.6512 33.0666 46.6512L32.8964 46.9041C32.8964 46.9041 14.4246 96.7415 58.6671 133.091C95.0628 163.134 141.736 136.623 141.736 136.623L141.982 136.32Z" fill="url(#paint2_linear_32_19558)" fill-opacity="0.12"/>
<path d="M141.677 136.402C141.677 136.402 101.259 101.337 117.868 57.0914C137.84 3.41732 191.055 4.31846 191.055 4.31846L191.328 4.45235C191.328 4.45235 232.133 38.4067 212.132 91.9703C195.634 136.186 141.93 136.571 141.93 136.571L141.677 136.402Z" fill="url(#paint3_linear_32_19558)" fill-opacity="0.12"/>
<path d="M142.008 136.431C142.008 136.431 185.576 105.215 173.377 59.6872C158.572 4.43524 105.559 0.400742 105.559 0.400742L105.254 0.482535C105.254 0.482535 61.3674 30.5109 76.1647 85.7352C88.3638 131.263 141.703 136.513 141.703 136.513L142.008 136.431Z" fill="url(#paint4_linear_32_19558)" fill-opacity="0.12"/>
<defs>
<linearGradient id="paint0_linear_32_19558" x1="105.353" y1="0.455854" x2="150.647" y2="169.493" gradientUnits="userSpaceOnUse">
<stop stop-color="#4CADEA"/>
<stop offset="1" stop-color="#4CADEA" stop-opacity="0"/>
</linearGradient>
<linearGradient id="paint1_linear_32_19558" x1="105.353" y1="0.455854" x2="150.647" y2="169.493" gradientUnits="userSpaceOnUse">
<stop stop-color="#8DBA39"/>
<stop offset="1" stop-color="#8DBA39" stop-opacity="0"/>
</linearGradient>
<linearGradient id="paint2_linear_32_19558" x1="105.353" y1="0.455854" x2="150.647" y2="169.493" gradientUnits="userSpaceOnUse">
<stop stop-color="#E08D33"/>
<stop offset="1" stop-color="#E08D33" stop-opacity="0"/>
</linearGradient>
<linearGradient id="paint3_linear_32_19558" x1="105.353" y1="0.455854" x2="150.647" y2="169.493" gradientUnits="userSpaceOnUse">
<stop stop-color="#2248B4"/>
<stop offset="1" stop-color="#2248B4" stop-opacity="0"/>
</linearGradient>
<linearGradient id="paint4_linear_32_19558" x1="105.353" y1="0.455854" x2="150.647" y2="169.493" gradientUnits="userSpaceOnUse">
<stop stop-color="#C04140"/>
<stop offset="1" stop-color="#C04140" stop-opacity="0"/>
</linearGradient>
</defs>
</svg>
