<svg width="22" height="22" viewBox="0 0 22 22" fill="none" xmlns="http://www.w3.org/2000/svg">
<path d="M11.5 15.2002H12.9M17.8 12.4002V11.0002C17.8 10.6289 17.6525 10.2728 17.3899 10.0102C17.1274 9.74769 16.7713 9.60019 16.4 9.60019H2.4C2.0287 9.60019 1.6726 9.74769 1.41005 10.0102C1.1475 10.2728 1 10.6289 1 11.0002V19.4002C1 19.7715 1.1475 20.1276 1.41005 20.3901C1.6726 20.6527 2.0287 20.8002 2.4 20.8002H16.4C16.7713 20.8002 17.1274 20.6527 17.3899 20.3901C17.6525 20.1276 17.8 19.7715 17.8 19.4002V18.0002V12.4002ZM17.8 12.4002H12.2C11.4574 12.4002 10.7452 12.6952 10.2201 13.2203C9.695 13.7454 9.4 14.4576 9.4 15.2002C9.4 15.9428 9.695 16.655 10.2201 17.1801C10.7452 17.7052 11.4574 18.0002 12.2 18.0002H17.8V12.4002ZM17.8 12.4002C18.5426 12.4002 19.2548 12.6952 19.7799 13.2203C20.305 13.7454 20.6 14.4576 20.6 15.2002C20.6 15.9428 20.305 16.655 19.7799 17.1801C19.2548 17.7052 18.5426 18.0002 17.8 18.0002V12.4002ZM5.2 9.60019V5.40019C5.2 4.28629 5.6425 3.218 6.43015 2.43035C7.2178 1.64269 8.28609 1.2002 9.4 1.2002C10.5139 1.2002 11.5822 1.64269 12.3698 2.43035C13.1575 3.218 13.6 4.28629 13.6 5.40019V9.60019H5.2ZM17.1 15.2002H18.5H17.1ZM14.3 15.2002H15.7H14.3Z" stroke="#F18A00" stroke-width="2"/>
</svg>
