<svg width="16" height="16" viewBox="0 0 16 16" fill="none" xmlns="http://www.w3.org/2000/svg">
<path d="M8.73171 2.73171C8.73171 2.3276 8.40411 2 8 2C7.59589 2 7.26829 2.3276 7.26829 2.73171V7.26829H2.73171C2.3276 7.26829 2 7.59589 2 8C2 8.40411 2.3276 8.73171 2.73171 8.73171H7.26829V13.2683C7.26829 13.6724 7.59589 14 8 14C8.40411 14 8.73171 13.6724 8.73171 13.2683V8.73171H13.2683C13.6724 8.73171 14 8.40411 14 8C14 7.59589 13.6724 7.26829 13.2683 7.26829H8.73171V2.73171Z" fill="#F18A00"/>
</svg>
