<svg width="20" height="21" viewBox="0 0 20 21" fill="none" xmlns="http://www.w3.org/2000/svg">
<path fill-rule="evenodd" clip-rule="evenodd" d="M9.9998 1.75C6.91787 1.75 4.41947 4.2484 4.41947 7.33033L4.41947 9.0125C4.41947 10.1471 4.0979 11.2584 3.49204 12.2177L3.00552 12.988C2.33565 14.0487 3.0978 15.4315 4.35226 15.4315H15.6473C16.9018 15.4315 17.6639 14.0487 16.9941 12.988L16.5076 12.2177C15.9017 11.2584 15.5801 10.1471 15.5801 9.01251L15.5801 7.33033C15.5801 4.2484 13.0817 1.75 9.9998 1.75ZM6.08614 7.33033C6.08614 5.16887 7.83834 3.41667 9.9998 3.41667C12.1613 3.41667 13.9135 5.16887 13.9135 7.33033L13.9135 9.0125C13.9135 10.4621 14.3243 11.8821 15.0984 13.1077L15.5134 13.7648H4.48618L4.90119 13.1077C5.67527 11.8821 6.08613 10.4621 6.08613 9.01251L6.08614 7.33033Z" fill="#F18A00"/>
<path d="M8.56989 16.5672C8.41873 16.1325 7.9438 15.9026 7.50909 16.0538C7.07438 16.2049 6.84452 16.6799 6.99567 17.1146C7.42755 18.3566 8.60839 19.25 10 19.25C11.3917 19.25 12.5725 18.3566 13.0044 17.1146C13.1556 16.6799 12.9257 16.2049 12.491 16.0538C12.0563 15.9026 11.5814 16.1325 11.4302 16.5672C11.2241 17.1599 10.6605 17.5834 10 17.5834C9.33964 17.5834 8.77598 17.1599 8.56989 16.5672Z" fill="#F18A00"/>
</svg>
