<svg width="237" height="39" viewBox="0 0 237 39" fill="none" xmlns="http://www.w3.org/2000/svg">
<path d="M236.5 37.8828L225.025 36.5936L231.879 27.3007L236.5 37.8828ZM0.433615 37.0587C0.973044 36.688 1.52376 36.3154 2.08557 35.9412L3.19423 37.6058C2.64034 37.9747 2.09767 38.3418 1.56638 38.707L0.433615 37.0587ZM5.51334 33.726C6.64059 33.0185 7.80524 32.3073 9.00607 31.594L10.0275 33.3135C8.84033 34.0187 7.6896 34.7214 6.57648 35.42L5.51334 33.726ZM12.5075 29.5671C13.6623 28.9154 14.8463 28.2634 16.0585 27.6122L17.0049 29.3741C15.8048 30.0188 14.633 30.6641 13.4904 31.3089L12.5075 29.5671ZM19.6691 25.719C20.8585 25.1102 22.0719 24.5033 23.3088 23.8995L24.1862 25.6968C22.9606 26.2951 21.7585 26.8963 20.5804 27.4993L19.6691 25.719ZM26.9594 22.1584C28.1757 21.5918 29.4124 21.0288 30.6689 20.4705L31.4811 22.2982C30.2354 22.8517 29.0095 23.4097 27.804 23.9714L26.9594 22.1584ZM34.3912 18.8551C35.6225 18.3334 36.8711 17.8166 38.1365 17.3056L38.8854 19.1602C37.6305 19.6669 36.3924 20.1793 35.1715 20.6966L34.3912 18.8551ZM41.9378 15.8082C43.1827 15.3299 44.4426 14.8576 45.717 14.3922L46.4032 16.2708C45.1393 16.7324 43.8897 17.2008 42.655 17.6751L41.9378 15.8082ZM49.5523 13.0274C50.8199 12.5883 52.1007 12.1562 53.3943 11.7318L54.0177 13.6321C52.7347 14.053 51.4643 14.4816 50.2071 14.9172L49.5523 13.0274ZM57.2621 10.4984C58.5486 10.0998 59.8469 9.70924 61.1565 9.32726L61.7165 11.2473C60.4176 11.6261 59.1299 12.0135 57.8539 12.4088L57.2621 10.4984ZM65.0553 8.22515C66.3578 7.86864 67.6708 7.52094 68.9938 7.1826L69.4893 9.12025C68.1772 9.45578 66.8751 9.80062 65.5833 10.1542L65.0553 8.22515ZM72.9223 6.21303C74.2381 5.90001 75.5632 5.59653 76.8972 5.30313L77.3268 7.25645C76.004 7.54738 74.69 7.84832 73.3851 8.15873L72.9223 6.21303ZM80.854 4.46824C82.1792 4.20043 83.5128 3.94282 84.8542 3.69594L85.2162 5.6629C83.8863 5.90767 82.5641 6.16307 81.2501 6.42861L80.854 4.46824ZM88.8418 2.99791C90.1755 2.77646 91.5165 2.56586 92.8645 2.36658L93.157 4.34507C91.8209 4.5426 90.4916 4.75137 89.1694 4.9709L88.8418 2.99791ZM96.8771 1.80994C98.218 1.63617 99.5654 1.47385 100.919 1.32345L101.14 3.31121C99.7985 3.46026 98.4632 3.62113 97.1342 3.79336L96.8771 1.80994ZM104.951 0.912792C106.297 0.788128 107.65 0.675503 109.008 0.575367L109.155 2.56995C107.809 2.66916 106.469 2.78075 105.135 2.90428L104.951 0.912792ZM113.053 0.315273C114.404 0.241211 115.759 0.179756 117.12 0.131336L117.191 2.13007C115.844 2.17803 114.5 2.23891 113.162 2.31227L113.053 0.315273ZM121.172 0.0263138C122.526 0.00436783 123.883 -0.00442886 125.245 0.000335693L125.238 2.00032C123.89 1.99561 122.545 2.00431 121.204 2.02605L121.172 0.0263138ZM129.297 0.0546875C130.652 0.086338 132.009 0.131653 133.371 0.19104L133.284 2.18914C131.936 2.13034 130.592 2.08548 129.251 2.05414L129.297 0.0546875ZM137.416 0.408714C138.767 0.49527 140.122 0.595955 141.479 0.711151L141.31 2.70399C139.967 2.58997 138.626 2.49031 137.288 2.40462L137.416 0.408714ZM145.514 1.09597C146.86 1.23853 148.208 1.39563 149.559 1.56765L149.306 3.55162C147.97 3.3814 146.635 3.22593 145.303 3.08485L145.514 1.09597ZM153.577 2.12298C154.915 2.3224 156.255 2.53673 157.596 2.76633L157.258 4.73764C155.931 4.51049 154.606 4.29844 153.282 4.10112L153.577 2.12298ZM161.591 3.49493C162.917 3.75176 164.245 4.02381 165.573 4.31141L165.15 6.26615C163.836 5.98165 162.523 5.71253 161.21 5.45846L161.591 3.49493ZM169.538 5.21542C170.85 5.52983 172.163 5.8597 173.476 6.20537L172.967 8.1395C171.668 7.79762 170.37 7.47134 169.072 7.16035L169.538 5.21542ZM177.405 7.28626C178.699 7.658 179.993 8.04537 181.288 8.44868L180.693 10.3582C179.413 9.95931 178.133 9.5762 176.853 9.20855L177.405 7.28626ZM185.172 9.70679C186.446 10.1353 187.72 10.5796 188.993 11.0399L188.314 12.9207C187.054 12.4655 185.795 12.0262 184.535 11.6024L185.172 9.70679ZM192.811 12.4684C194.067 12.9547 195.322 13.457 196.577 13.9754L195.813 15.8239C194.572 15.3111 193.331 14.8145 192.088 14.3335L192.811 12.4684ZM200.317 15.57C201.555 16.1138 202.791 16.6738 204.026 17.25L203.18 19.0625C201.959 18.4925 200.736 17.9387 199.513 17.4008L200.317 15.57ZM207.68 19.0045C208.896 19.6054 210.112 20.2225 211.326 20.856L210.401 22.6291C209.2 22.0024 207.998 21.392 206.794 20.7977L207.68 19.0045ZM214.886 22.7637C216.071 23.4151 217.254 24.0826 218.435 24.7662L217.433 26.4972C216.264 25.8208 215.094 25.1606 213.922 24.5161L214.886 22.7637ZM221.927 26.8383C223.077 27.5372 224.225 28.2518 225.371 28.9823L224.295 30.6687C223.162 29.9458 222.026 29.2388 220.888 28.5473L221.927 26.8383ZM228.797 31.2187C229.909 31.9615 231.019 32.7197 232.127 33.4935L230.982 35.1332C229.885 34.3674 228.787 33.617 227.686 32.8818L228.797 31.2187Z" fill="#0C1D38" fill-opacity="0.3"/>
</svg>
