<svg width="237" height="39" viewBox="0 0 237 39" fill="none" xmlns="http://www.w3.org/2000/svg">
<path d="M237 1L225.525 2.28925L232.379 11.5821L237 1ZM0.933615 1.82414C1.47304 2.19486 2.02376 2.56744 2.58557 2.94162L3.69423 1.27702C3.14034 0.908123 2.59767 0.540978 2.06638 0.175859L0.933615 1.82414ZM6.01334 5.15683C7.14059 5.86427 8.30524 6.57551 9.50607 7.2888L10.5275 5.56928C9.34033 4.86412 8.1896 4.16138 7.07648 3.4628L6.01334 5.15683ZM13.0075 9.31567C14.1623 9.96737 15.3463 10.6195 16.5585 11.2706L17.5049 9.50872C16.3048 8.86406 15.133 8.21867 13.9904 7.57386L13.0075 9.31567ZM20.1691 13.1638C21.3585 13.7726 22.5719 14.3795 23.8088 14.9833L24.6862 13.186C23.4606 12.5877 22.2585 11.9865 21.0804 11.3835L20.1691 13.1638ZM27.4594 16.7244C28.6757 17.291 29.9124 17.854 31.1689 18.4123L31.9811 16.5846C30.7354 16.0311 29.5095 15.4731 28.304 14.9115L27.4594 16.7244ZM34.8912 20.0277C36.1225 20.5495 37.3711 21.0662 38.6365 21.5772L39.3854 19.7227C38.1305 19.216 36.8924 18.7035 35.6715 18.1862L34.8912 20.0277ZM42.4378 23.0746C43.6827 23.5529 44.9426 24.0252 46.217 24.4906L46.9032 22.612C45.6393 22.1504 44.3897 21.682 43.155 21.2077L42.4378 23.0746ZM50.0523 25.8554C51.3199 26.2946 52.6007 26.7267 53.8943 27.151L54.5177 25.2507C53.2347 24.8298 51.9643 24.4012 50.7071 23.9656L50.0523 25.8554ZM57.7621 28.3844C59.0486 28.783 60.3469 29.1736 61.6565 29.5555L62.2165 27.6355C60.9176 27.2567 59.6299 26.8693 58.3539 26.474L57.7621 28.3844ZM65.5553 30.6577C66.8578 31.0142 68.1708 31.3619 69.4938 31.7002L69.9893 29.7626C68.6772 29.427 67.3751 29.0822 66.0833 28.7286L65.5553 30.6577ZM73.4223 32.6698C74.7381 32.9828 76.0632 33.2863 77.3972 33.5797L77.8268 31.6264C76.504 31.3354 75.19 31.0345 73.8851 30.7241L73.4223 32.6698ZM81.354 34.4146C82.6792 34.6824 84.0128 34.94 85.3542 35.1869L85.7162 33.2199C84.3863 32.9751 83.0641 32.7197 81.7501 32.4542L81.354 34.4146ZM89.3418 35.8849C90.6755 36.1063 92.0165 36.317 93.3645 36.5162L93.657 34.5377C92.3209 34.3402 90.9916 34.1314 89.6694 33.9119L89.3418 35.8849ZM97.3771 37.0729C98.718 37.2466 100.065 37.409 101.419 37.5594L101.64 35.5716C100.298 35.4226 98.9632 35.2617 97.6342 35.0895L97.3771 37.0729ZM105.451 37.97C106.797 38.0947 108.15 38.2073 109.508 38.3074L109.655 36.3129C108.309 36.2137 106.969 36.1021 105.635 35.9785L105.451 37.97ZM113.553 38.5675C114.904 38.6416 116.259 38.7031 117.62 38.7515L117.691 36.7527C116.344 36.7048 115 36.6439 113.662 36.5705L113.553 38.5675ZM121.672 38.8565C123.026 38.8784 124.383 38.8872 125.745 38.8825L125.738 36.8825C124.39 36.8872 123.045 36.8785 121.704 36.8568L121.672 38.8565ZM129.797 38.8281C131.152 38.7965 132.509 38.7512 133.871 38.6918L133.784 36.6937C132.436 36.7525 131.092 36.7973 129.751 36.8287L129.797 38.8281ZM137.916 38.4741C139.267 38.3875 140.622 38.2869 141.979 38.1717L141.81 36.1788C140.467 36.2928 139.126 36.3925 137.788 36.4782L137.916 38.4741ZM146.014 37.7868C147.36 37.6443 148.708 37.4872 150.059 37.3152L149.806 35.3312C148.47 35.5014 147.135 35.6569 145.803 35.798L146.014 37.7868ZM154.077 36.7598C155.415 36.5604 156.755 36.3461 158.096 36.1165L157.758 34.1452C156.431 34.3723 155.106 34.5844 153.782 34.7817L154.077 36.7598ZM162.091 35.3879C163.417 35.1311 164.745 34.859 166.073 34.5714L165.65 32.6167C164.336 32.9012 163.023 33.1703 161.71 33.4244L162.091 35.3879ZM170.038 33.6674C171.35 33.353 172.663 33.0231 173.976 32.6774L173.467 30.7433C172.168 31.0852 170.87 31.4115 169.572 31.7225L170.038 33.6674ZM177.905 31.5965C179.199 31.2248 180.493 30.8374 181.788 30.4341L181.193 28.5246C179.913 28.9235 178.633 29.3066 177.353 29.6743L177.905 31.5965ZM185.672 29.176C186.946 28.7475 188.22 28.3033 189.493 27.843L188.814 25.9621C187.554 26.4173 186.295 26.8566 185.035 27.2804L185.672 29.176ZM193.311 26.4144C194.567 25.9281 195.822 25.4259 197.077 24.9074L196.313 23.059C195.072 23.5717 193.831 24.0683 192.588 24.5493L193.311 26.4144ZM200.817 23.3129C202.055 22.769 203.291 22.2091 204.526 21.6328L203.68 19.8204C202.459 20.3903 201.236 20.9441 200.013 21.482L200.817 23.3129ZM208.18 19.8784C209.396 19.2774 210.612 18.6603 211.826 18.0268L210.901 16.2537C209.7 16.8804 208.498 17.4908 207.294 18.0851L208.18 19.8784ZM215.386 16.1192C216.571 15.4677 217.754 14.8003 218.935 14.1166L217.933 12.3856C216.764 13.062 215.594 13.7223 214.422 14.3667L215.386 16.1192ZM222.427 12.0445C223.577 11.3456 224.725 10.631 225.871 9.90047L224.795 8.21408C223.662 8.93697 222.526 9.64405 221.388 10.3356L222.427 12.0445ZM229.297 7.66414C230.409 6.92127 231.519 6.16307 232.627 5.38932L231.482 3.74961C230.385 4.51544 229.287 5.26585 228.186 6.00103L229.297 7.66414Z" fill="#0C1D38" fill-opacity="0.3"/>
</svg>
