<svg width="57" height="56" viewBox="0 0 57 56" fill="none" xmlns="http://www.w3.org/2000/svg">
<path d="M0.5 0H40.5C49.3366 0 56.5 7.16344 56.5 16V40C56.5 48.8366 49.3366 56 40.5 56H16.5C7.66344 56 0.5 48.8366 0.5 40V0Z" fill="#F18A00"/>
<path d="M45.1693 24.6693V33.0026C45.1693 41.3359 41.8359 44.6693 33.5026 44.6693H23.5026C15.1693 44.6693 11.8359 41.3359 11.8359 33.0026V23.0026C11.8359 14.6693 15.1693 11.3359 23.5026 11.3359H31.8359" stroke="white" stroke-width="2.5" stroke-linecap="round" stroke-linejoin="round"/>
<path d="M20.1641 29.6693H30.1641M20.1641 36.3359H26.8307M45.1641 24.6693H38.4974C33.4974 24.6693 31.8307 23.0026 31.8307 18.0026V11.3359L45.1641 24.6693Z" stroke="white" stroke-width="2.5" stroke-linecap="round" stroke-linejoin="round"/>
</svg>
