<svg width="57" height="56" viewBox="0 0 57 56" fill="none" xmlns="http://www.w3.org/2000/svg">
<path d="M0.5 0H40.5C49.3366 0 56.5 7.16344 56.5 16V40C56.5 48.8366 49.3366 56 40.5 56H16.5C7.66344 56 0.5 48.8366 0.5 40V0Z" fill="#F18A00"/>
<path d="M41.7807 24.6688H15.1141V38.0021C15.1141 43.0021 16.7807 44.6688 21.7807 44.6688H35.1141C40.1141 44.6688 41.7807 43.0021 41.7807 38.0021V24.6688ZM44.3307 19.6688V21.3355C44.3307 23.1688 43.4474 24.6688 40.9974 24.6688H15.9974C13.4474 24.6688 12.6641 23.1688 12.6641 21.3355V19.6688C12.6641 17.8355 13.4474 16.3355 15.9974 16.3355H40.9974C43.4474 16.3355 44.3307 17.8355 44.3307 19.6688ZM27.8974 16.3355H18.6974C18.4233 16.0382 18.2754 15.6462 18.2847 15.242C18.2941 14.8379 18.4599 14.4531 18.7474 14.1688L21.1141 11.8021C21.4136 11.506 21.8178 11.3398 22.2391 11.3398C22.6603 11.3398 23.0645 11.506 23.3641 11.8021L27.8974 16.3355ZM38.2807 16.3355H29.0807L33.6141 11.8021C33.9136 11.506 34.3178 11.3398 34.7391 11.3398C35.1603 11.3398 35.5645 11.506 35.8641 11.8021L38.2307 14.1688C38.8307 14.7688 38.8474 15.7188 38.2807 16.3355Z" stroke="white" stroke-width="2.5" stroke-miterlimit="10" stroke-linecap="round" stroke-linejoin="round"/>
<path d="M23.4023 24.6641V33.2307C23.4023 34.5641 24.869 35.3474 25.9857 34.6307L27.5523 33.5974C27.8245 33.4182 28.1432 33.3227 28.469 33.3227C28.7949 33.3227 29.1135 33.4182 29.3857 33.5974L30.869 34.5974C31.1193 34.7642 31.4102 34.86 31.7107 34.8745C32.0111 34.889 32.3099 34.8216 32.5751 34.6796C32.8403 34.5376 33.0619 34.3263 33.2164 34.0682C33.3709 33.8101 33.4525 33.5149 33.4523 33.2141V24.6641H23.4023Z" stroke="white" stroke-width="2.5" stroke-miterlimit="10" stroke-linecap="round" stroke-linejoin="round"/>
</svg>
