<svg width="57" height="56" viewBox="0 0 57 56" fill="none" xmlns="http://www.w3.org/2000/svg">
<path d="M0.5 0H40.5C49.3366 0 56.5 7.16344 56.5 16V40C56.5 48.8366 49.3366 56 40.5 56H16.5C7.66344 56 0.5 48.8366 0.5 40V0Z" fill="#F18A00"/>
<path d="M45.1193 38.5526C45.1193 39.1526 44.9859 39.7693 44.7026 40.3693C44.4193 40.9693 44.0526 41.5359 43.5693 42.0693C42.7526 42.9693 41.8526 43.6193 40.8359 44.0359C39.8359 44.4526 38.7526 44.6693 37.5859 44.6693C35.8859 44.6693 34.0693 44.2693 32.1526 43.4526C30.2359 42.6359 28.3193 41.5359 26.4193 40.1526C24.4828 38.7361 22.6554 37.1762 20.9526 35.4859C19.2672 33.7893 17.7128 31.9674 16.3026 30.0359C14.9359 28.1359 13.8359 26.2359 13.0359 24.3526C12.2359 22.4526 11.8359 20.6359 11.8359 18.9026C11.8359 17.7693 12.0359 16.6859 12.4359 15.6859C12.8359 14.6693 13.4693 13.7359 14.3526 12.9026C15.4193 11.8526 16.5859 11.3359 17.8193 11.3359C18.2859 11.3359 18.7526 11.4359 19.1693 11.6359C19.6026 11.8359 19.9859 12.1359 20.2859 12.5693L24.1526 18.0193C24.4526 18.4359 24.6693 18.8193 24.8193 19.1859C24.9693 19.5359 25.0526 19.8859 25.0526 20.2026C25.0526 20.6026 24.9359 21.0026 24.7026 21.3859C24.4859 21.7693 24.1693 22.1693 23.7693 22.5693L22.5026 23.8859C22.3193 24.0693 22.2359 24.2859 22.2359 24.5526C22.2359 24.6859 22.2526 24.8026 22.2859 24.9359C22.3359 25.0693 22.3859 25.1693 22.4193 25.2693C22.7193 25.8193 23.2359 26.5359 23.9693 27.4026C24.7193 28.2693 25.5193 29.1526 26.3859 30.0359C27.2859 30.9193 28.1526 31.7359 29.0359 32.4859C29.9026 33.2193 30.6193 33.7193 31.1859 34.0193C31.2693 34.0526 31.3693 34.1026 31.4859 34.1526C31.6193 34.2026 31.7526 34.2193 31.9026 34.2193C32.1859 34.2193 32.4026 34.1193 32.5859 33.9359L33.8526 32.6859C34.2693 32.2693 34.6693 31.9526 35.0526 31.7526C35.4359 31.5193 35.8193 31.4026 36.2359 31.4026C36.5526 31.4026 36.8859 31.4693 37.2526 31.6193C37.6193 31.7693 38.0026 31.9859 38.4193 32.2693L43.9359 36.1859C44.3693 36.4859 44.6693 36.8359 44.8526 37.2526C45.0193 37.6693 45.1193 38.0859 45.1193 38.5526Z" stroke="white" stroke-width="2.5" stroke-miterlimit="10"/>
</svg>
