<svg width="57" height="56" viewBox="0 0 57 56" fill="none" xmlns="http://www.w3.org/2000/svg">
<path d="M0.5 0H40.5C49.3366 0 56.5 7.16344 56.5 16V40C56.5 48.8366 49.3366 56 40.5 56H16.5C7.66344 56 0.5 48.8366 0.5 40V0Z" fill="#F18A00"/>
<path d="M35.8479 14.6705C39.0813 14.6705 41.6813 17.2871 41.6813 20.5038C41.6813 23.6538 39.1813 26.2205 36.0646 26.3371C35.9206 26.3205 35.7752 26.3205 35.6313 26.3371M39.0646 41.3371C40.2646 41.0871 41.3979 40.6038 42.3312 39.8871C44.9312 37.9371 44.9312 34.7205 42.3312 32.7705C41.4146 32.0705 40.2979 31.6038 39.1146 31.3371M23.7646 26.1205C23.5979 26.1038 23.3979 26.1038 23.2146 26.1205C21.3016 26.0555 19.489 25.2485 18.1606 23.8704C16.8323 22.4923 16.0925 20.6512 16.0979 18.7371C16.0979 14.6538 19.3979 11.3371 23.4979 11.3371C25.4583 11.3018 27.3525 12.0466 28.7637 13.4078C30.1749 14.769 30.9876 16.6351 31.0229 18.5955C31.0583 20.5559 30.3134 22.45 28.9522 23.8612C27.591 25.2724 25.725 26.0851 23.7646 26.1205ZM15.4313 32.2705C11.3979 34.9705 11.3979 39.3705 15.4313 42.0538C20.0146 45.1205 27.5313 45.1205 32.1146 42.0538C36.1479 39.3538 36.1479 34.9538 32.1146 32.2705C27.5479 29.2205 20.0312 29.2205 15.4313 32.2705Z" stroke="white" stroke-width="2.5" stroke-linecap="round" stroke-linejoin="round"/>
</svg>
