<svg width="237" height="39" viewBox="0 0 237 39" fill="none" xmlns="http://www.w3.org/2000/svg">
<path d="M236.5 1L225.025 2.28925L231.879 11.5821L236.5 1ZM0.433615 1.82414C0.973044 2.19486 1.52376 2.56744 2.08557 2.94162L3.19423 1.27702C2.64034 0.908123 2.09767 0.540978 1.56638 0.175859L0.433615 1.82414ZM5.51334 5.15683C6.64059 5.86427 7.80524 6.57551 9.00607 7.2888L10.0275 5.56928C8.84033 4.86412 7.6896 4.16138 6.57648 3.4628L5.51334 5.15683ZM12.5075 9.31567C13.6623 9.96737 14.8463 10.6195 16.0585 11.2706L17.0049 9.50872C15.8048 8.86406 14.633 8.21867 13.4904 7.57386L12.5075 9.31567ZM19.6691 13.1638C20.8585 13.7726 22.0719 14.3795 23.3088 14.9833L24.1862 13.186C22.9606 12.5877 21.7585 11.9865 20.5804 11.3835L19.6691 13.1638ZM26.9594 16.7244C28.1757 17.291 29.4124 17.854 30.6689 18.4123L31.4811 16.5846C30.2354 16.0311 29.0095 15.4731 27.804 14.9115L26.9594 16.7244ZM34.3912 20.0277C35.6225 20.5495 36.8711 21.0662 38.1365 21.5772L38.8854 19.7227C37.6305 19.216 36.3924 18.7035 35.1715 18.1862L34.3912 20.0277ZM41.9378 23.0746C43.1827 23.5529 44.4426 24.0252 45.717 24.4906L46.4032 22.612C45.1393 22.1504 43.8897 21.682 42.655 21.2077L41.9378 23.0746ZM49.5523 25.8554C50.8199 26.2946 52.1007 26.7267 53.3943 27.151L54.0177 25.2507C52.7347 24.8298 51.4643 24.4012 50.2071 23.9656L49.5523 25.8554ZM57.2621 28.3844C58.5486 28.783 59.8469 29.1736 61.1565 29.5555L61.7165 27.6355C60.4176 27.2567 59.1299 26.8693 57.8539 26.474L57.2621 28.3844ZM65.0553 30.6577C66.3578 31.0142 67.6708 31.3619 68.9938 31.7002L69.4893 29.7626C68.1772 29.427 66.8751 29.0822 65.5833 28.7286L65.0553 30.6577ZM72.9223 32.6698C74.2381 32.9828 75.5632 33.2863 76.8972 33.5797L77.3268 31.6264C76.004 31.3354 74.69 31.0345 73.3851 30.7241L72.9223 32.6698ZM80.854 34.4146C82.1792 34.6824 83.5128 34.94 84.8542 35.1869L85.2162 33.2199C83.8863 32.9751 82.5641 32.7197 81.2501 32.4542L80.854 34.4146ZM88.8418 35.8849C90.1755 36.1063 91.5165 36.317 92.8645 36.5162L93.157 34.5377C91.8209 34.3402 90.4916 34.1314 89.1694 33.9119L88.8418 35.8849ZM96.8771 37.0729C98.218 37.2466 99.5654 37.409 100.919 37.5594L101.14 35.5716C99.7985 35.4226 98.4632 35.2617 97.1342 35.0895L96.8771 37.0729ZM104.951 37.97C106.297 38.0947 107.65 38.2073 109.008 38.3074L109.155 36.3129C107.809 36.2137 106.469 36.1021 105.135 35.9785L104.951 37.97ZM113.053 38.5675C114.404 38.6416 115.759 38.7031 117.12 38.7515L117.191 36.7527C115.844 36.7048 114.5 36.6439 113.162 36.5705L113.053 38.5675ZM121.172 38.8565C122.526 38.8784 123.883 38.8872 125.245 38.8825L125.238 36.8825C123.89 36.8872 122.545 36.8785 121.204 36.8568L121.172 38.8565ZM129.297 38.8281C130.652 38.7965 132.009 38.7512 133.371 38.6918L133.284 36.6937C131.936 36.7525 130.592 36.7973 129.251 36.8287L129.297 38.8281ZM137.416 38.4741C138.767 38.3875 140.122 38.2869 141.479 38.1717L141.31 36.1788C139.967 36.2928 138.626 36.3925 137.288 36.4782L137.416 38.4741ZM145.514 37.7868C146.86 37.6443 148.208 37.4872 149.559 37.3152L149.306 35.3312C147.97 35.5014 146.635 35.6569 145.303 35.798L145.514 37.7868ZM153.577 36.7598C154.915 36.5604 156.255 36.3461 157.596 36.1165L157.258 34.1452C155.931 34.3723 154.606 34.5844 153.282 34.7817L153.577 36.7598ZM161.591 35.3879C162.917 35.1311 164.245 34.859 165.573 34.5714L165.15 32.6167C163.836 32.9012 162.523 33.1703 161.21 33.4244L161.591 35.3879ZM169.538 33.6674C170.85 33.353 172.163 33.0231 173.476 32.6774L172.967 30.7433C171.668 31.0852 170.37 31.4115 169.072 31.7225L169.538 33.6674ZM177.405 31.5965C178.699 31.2248 179.993 30.8374 181.288 30.4341L180.693 28.5246C179.413 28.9235 178.133 29.3066 176.853 29.6743L177.405 31.5965ZM185.172 29.176C186.446 28.7475 187.72 28.3033 188.993 27.843L188.314 25.9621C187.054 26.4173 185.795 26.8566 184.535 27.2804L185.172 29.176ZM192.811 26.4144C194.067 25.9281 195.322 25.4259 196.577 24.9074L195.813 23.059C194.572 23.5717 193.331 24.0683 192.088 24.5493L192.811 26.4144ZM200.317 23.3129C201.555 22.769 202.791 22.2091 204.026 21.6328L203.18 19.8204C201.959 20.3903 200.736 20.9441 199.513 21.482L200.317 23.3129ZM207.68 19.8784C208.896 19.2774 210.112 18.6603 211.326 18.0268L210.401 16.2537C209.2 16.8804 207.998 17.4908 206.794 18.0851L207.68 19.8784ZM214.886 16.1192C216.071 15.4677 217.254 14.8003 218.435 14.1166L217.433 12.3856C216.264 13.062 215.094 13.7223 213.922 14.3667L214.886 16.1192ZM221.927 12.0445C223.077 11.3456 224.225 10.631 225.371 9.90047L224.295 8.21408C223.162 8.93697 222.026 9.64405 220.888 10.3356L221.927 12.0445ZM228.797 7.66414C229.909 6.92127 231.019 6.16307 232.127 5.38932L230.982 3.74961C229.885 4.51544 228.787 5.26585 227.686 6.00103L228.797 7.66414Z" fill="#0C1D38" fill-opacity="0.3"/>
</svg>
