<svg xmlns="http://www.w3.org/2000/svg" version="1.1" xmlns:xlink="http://www.w3.org/1999/xlink" xmlns:svgjs="http://svgjs.dev/svgjs" width="1000" height="1000" viewBox="0 0 1000 1000"><rect width="1000" height="1000" fill="#ffffff"></rect><g transform="matrix(0.7,0,0,0.7,149.65000000000003,149.65000000000003)"><svg viewBox="0 0 280 280" data-background-color="#ffffff" preserveAspectRatio="xMidYMid meet" height="1000" width="1000" xmlns="http://www.w3.org/2000/svg" xmlns:xlink="http://www.w3.org/1999/xlink"><g id="tight-bounds" transform="matrix(1,0,0,1,0.13999999999998636,0.13999999999998636)"><svg viewBox="0 0 279.72 279.72" height="279.72" width="279.72"><g><svg viewBox="0 0 279.72 279.72" height="279.72" width="279.72"><g><svg viewBox="0 0 279.72 279.72" height="279.72" width="279.72"><g id="textblocktransform"><svg viewBox="0 0 279.72 279.72" height="279.72" width="279.72" id="textblock"><g><svg viewBox="0 0 279.72 279.72" height="279.72" width="279.72"><g transform="matrix(1,0,0,1,57.446704652707865,57.446704652707865)"><svg viewBox="0 0 164.8265906945843 164.8265906945843" height="164.8265906945843" width="164.8265906945843"><g><circle r="82" cx="82.41329534729215" cy="82.41329534729215" fill="#e56d90" data-fill-palette-color="accent"></circle><svg xmlns="http://www.w3.org/2000/svg" xmlns:xlink="http://www.w3.org/1999/xlink" version="1.1" x="24.72398860418764" y="24.723988604187646" viewBox="7.804 1.6529999999999934 82.30199999999999 95.84700000000001" enable-background="new 0 0 100 100" xml:space="preserve" height="115.378613486209" width="115.378613486209" class="icon-kg-0" data-fill-palette-color="quaternary" id="kg-0"><path d="M37.825 69.323c3.455-2.543 5.7-6.907 5.7-11.526 0-7.719-6.256-14.107-13.974-14.107-7.718 0-13.974 6.189-13.974 13.906 0 4.621 2.245 9.217 5.702 11.76C13.37 72.56 7.804 81 7.804 90c0 10 43.493 10 43.493 0C51.297 81 45.732 72.531 37.825 69.323zM33.4 65.53c-2.154 0-3.902-1.163-3.902-2.595s1.748-2.593 3.902-2.593c2.155 0 3.902 1.161 3.902 2.593S35.555 65.53 33.4 65.53z" fill="#ffffff" data-fill-palette-color="quaternary"></path><g fill="#ffffff" data-fill-palette-color="quaternary"><path d="M90.106 14.284c0 7.264-4.55 14.674-13.65 22.232-6.333 5.243-14.188 10.1-23.561 14.572 0.341-1.794 0.511-3.506 0.511-5.142 0-4.22-1.339-8.056-4.017-11.507-2.498-2.771-5.003-5.527-7.523-8.273-2.682-3.358-4.018-7.034-4.018-11.031 0-3.928 1.323-7.153 3.966-9.687 2.645-2.528 5.941-3.795 9.89-3.795 2.703 0 5.21 0.704 7.525 2.111 2.521 1.542 4.116 3.552 4.801 6.028 2.767-5.425 6.855-8.139 12.256-8.139 3.633 0 6.81 1.18 9.533 3.54C88.675 7.668 90.106 10.698 90.106 14.284z" fill="#ffffff" data-fill-palette-color="quaternary"></path></g></svg></g></svg></g><g><path d="M6.914 99.752v0c-2.481-0.845-4.059-2.083-4.734-3.715-0.671-1.623-0.527-3.842 0.431-6.657v0c0.67-1.968 1.72-3.381 3.15-4.24 1.436-0.856 3.293-1.193 5.57-1.012v0l1.478 4.485-0.638 1.875-1.705-5.205c-1.895-0.044-3.361 0.322-4.398 1.099-1.029 0.773-1.796 1.903-2.303 3.391v0c-0.347 1.019-0.576 1.903-0.688 2.652-0.118 0.747-0.112 1.536 0.02 2.368 0.134 0.825 0.55 1.557 1.249 2.196 0.698 0.638 1.686 1.175 2.961 1.609v0c1.128 0.384 2.302 0.204 3.521-0.54 1.223-0.735 2.396-1.742 3.518-3.02 1.12-1.271 2.251-2.546 3.394-3.824 1.152-1.282 2.405-2.272 3.758-2.97 1.345-0.694 2.672-0.818 3.98-0.373v0c2.558 0.871 4.247 2.15 5.067 3.839 0.824 1.697 0.714 4.081-0.331 7.152v0c-0.853 2.507-2.03 4.303-3.53 5.388-1.495 1.093-3.399 1.547-5.711 1.361v0l-0.085-1.231c2.245 0.192 3.98-0.197 5.205-1.169 1.229-0.962 2.218-2.543 2.967-4.742v0c0.836-2.455 0.986-4.44 0.449-5.953-0.545-1.509-2.02-2.673-4.424-3.491v0c-1.128-0.384-2.301-0.207-3.518 0.53-1.225 0.742-2.4 1.755-3.524 3.039-1.126 1.291-2.259 2.568-3.398 3.834-1.147 1.269-2.397 2.25-3.748 2.941-1.347 0.7-2.675 0.828-3.983 0.383z" fill="#e83d95" data-fill-palette-color="primary"></path><path d="M37.771 43.885c-0.81 0.511-1.655 1.281-2.535 2.311-0.875 1.025-1.504 1.98-1.886 2.864-0.382 0.885-0.53 1.872-0.444 2.961 0.09 1.083 0.571 2.246 1.442 3.489 0.876 1.247 2.167 2.599 3.872 4.055 1.705 1.456 3.239 2.517 4.602 3.182 1.369 0.67 2.596 0.965 3.68 0.885 1.083-0.09 2.032-0.393 2.846-0.908 0.814-0.516 1.659-1.286 2.535-2.311 0.88-1.03 1.508-1.985 1.886-2.865 0.382-0.885 0.533-1.87 0.452-2.954-0.09-1.083-0.573-2.249-1.45-3.496-0.871-1.243-2.159-2.592-3.864-4.048-1.705-1.456-3.241-2.519-4.61-3.189-1.364-0.666-2.588-0.959-3.672-0.878-1.088 0.086-2.04 0.386-2.854 0.902zM55.334 53.822c0.512 2.352-0.33 4.813-2.524 7.382-2.195 2.57-4.494 3.786-6.897 3.649-2.413-0.137-5.241-1.591-8.485-4.361-3.25-2.775-5.128-5.341-5.636-7.699-0.512-2.352 0.33-4.813 2.525-7.383 2.195-2.57 4.494-3.786 6.896-3.648 2.407 0.132 5.236 1.586 8.486 4.361 3.244 2.771 5.123 5.337 5.635 7.699z" fill="#e83d95" data-fill-palette-color="primary"></path><path d="M80.924 34.987c-2.187-1.027-4.27-3.431-6.246-7.212-1.98-3.787-2.766-6.869-2.358-9.245 0.402-2.373 2.101-4.342 5.096-5.908 2.995-1.566 5.581-1.867 7.759-0.903v0l-0.407 1.129c-1.797-0.864-4.061-0.582-6.792 0.845v0c-1.194 0.624-2.134 1.276-2.818 1.955-0.684 0.679-1.19 1.539-1.516 2.581-0.321 1.039-0.308 2.297 0.036 3.775 0.348 1.484 1.041 3.219 2.08 5.206 1.039 1.987 2.066 3.543 3.083 4.67 1.02 1.133 2.048 1.864 3.084 2.194 1.039 0.321 2.032 0.393 2.98 0.219 0.948-0.175 2.019-0.574 3.214-1.199v0c2.731-1.428 4.256-3.123 4.575-5.085v0l1.159 0.31c-0.452 2.338-2.175 4.289-5.169 5.855-2.995 1.566-5.581 1.837-7.76 0.813z" fill="#e83d95" data-fill-palette-color="primary"></path><path d="M121.829 23.365l-4.054-23.155 1.201-0.21 4.054 23.155z" fill="#e83d95" data-fill-palette-color="primary"></path><path d="M154.124 23.543l0.205-1.202 13.018 2.224-4.895-20.695-12.204 19.011-1.281-0.219 14.01-21.866 5.967 25.279z" fill="#e83d95" data-fill-palette-color="primary"></path><path d="M194.615 35.342l10.741 6.04-0.598 1.062-11.803-6.637 11.521-20.49 1.063 0.598z" fill="#e83d95" data-fill-palette-color="primary"></path><path d="M225.82 59.968l8.103 9.284-0.918 0.801-8.905-10.202 17.71-15.457 0.802 0.918z" fill="#e83d95" data-fill-palette-color="primary"></path><path d="M271.252 84.875l1.137-0.41 5.565 15.444-18.69-4.041-11.44 4.122-0.413-1.147 11.44-4.122 11.82-15.025 0.482 1.338-10.834 13.806 15.754 3.415z" fill="#e83d95" data-fill-palette-color="primary"></path><path d="M6.379 183.601l1.121-0.395 5.264 14.948 19.672-6.928-11.781-5.652 5.642-11.778-20.831 7.337-0.37-1.173 22.421-7.897 0.409 1.16-5.642 11.777 11.781 5.652 0.408 1.159-22.46 7.911z" fill="#e83d95" data-fill-palette-color="primary"></path><path d="M20.317 213.576l1.024-0.68 7.413 11.149 11.85-17.992-22.491 4.207-0.726-1.091 25.848-4.865-14.486 21.953z" fill="#e83d95" data-fill-palette-color="primary"></path><path d="M37.574 236.027v0l-2.168-2.242 17.117-16.554 2.168 2.242c2.815 2.911 4.295 5.975 4.437 9.191 0.138 3.211-1.112 6.093-3.751 8.645-2.639 2.552-5.56 3.705-8.765 3.46-3.21-0.25-6.222-1.831-9.038-4.742zM37.144 233.814l1.314 1.358c2.571 2.658 5.291 4.112 8.16 4.361 2.87 0.249 5.504-0.787 7.905-3.108 2.4-2.321 3.523-4.92 3.37-7.796-0.153-2.876-1.515-5.643-4.086-8.301v0l-1.313-1.359z" fill="#e83d95" data-fill-palette-color="primary"></path><path d="M70.757 258.403l0.289 1.188c-2.3 0.718-4.867 0.12-7.701-1.795-2.839-1.919-4.327-4.097-4.461-6.533-0.139-2.431 1.003-5.44 3.426-9.026 2.423-3.586 4.788-5.768 7.096-6.546 2.312-0.784 4.887-0.216 7.726 1.702v0c3.288 2.222 4.794 4.809 4.516 7.76v0l-13.042 1.338-1.599-1.08 13.454-1.367c-0.096-2.01-1.435-3.888-4.017-5.632v0c-1.139-0.77-2.173-1.297-3.101-1.581-0.932-0.278-1.941-0.315-3.028-0.109-1.081 0.209-2.196 0.825-3.344 1.848-1.158 1.024-2.372 2.476-3.643 4.355-1.27 1.88-2.164 3.548-2.682 5.004-0.52 1.447-0.675 2.711-0.466 3.793 0.215 1.085 0.625 2.008 1.231 2.769 0.61 0.755 1.484 1.518 2.622 2.287v0c2.581 1.744 4.823 2.286 6.724 1.625z" fill="#e83d95" data-fill-palette-color="primary"></path><path d="M99 248.855l1.28 0.278 4.281 22.478 9.145-12.922 2.937 15.544 12.425-17.595-25.881-5.616 0.26-1.201 27.688 6.008-15.162 21.491-2.937-15.544-9.145 12.923z" fill="#e83d95" data-fill-palette-color="primary"></path><path d="M135.87 279.666l1.037-23.789 1.228 0.054-1.037 23.789z" fill="#e83d95" data-fill-palette-color="primary"></path><path d="M144.142 255.689l18.336-2.203 0.147 1.221-8.553 1.027 2.693 22.422-1.22 0.146-2.694-22.421-8.563 1.028z" fill="#e83d95" data-fill-palette-color="primary"></path><path d="M182.366 247.669l6.758 22.833-1.179 0.348-3.379-11.416-11.816 3.497 3.379 11.417-1.178 0.348-6.758-22.832 1.178-0.349 3.03 10.238 11.816-3.498-3.03-10.237z" fill="#e83d95" data-fill-palette-color="primary"></path><path d="M215.999 254.64l10.268-7.103 0.699 1.011-11.279 7.802-13.546-19.583 1.01-0.699z" fill="#e83d95" data-fill-palette-color="primary"></path><path d="M226.607 217.115c-0.852 0.464-1.757 1.185-2.715 2.162-0.962 0.982-1.666 1.905-2.111 2.767-0.441 0.867-0.658 1.853-0.651 2.959 0.012 1.101 0.417 2.309 1.216 3.622 0.799 1.323 2.01 2.778 3.631 4.365 1.621 1.587 3.101 2.766 4.441 3.538 1.33 0.771 2.546 1.151 3.647 1.14 1.106-0.016 2.088-0.254 2.945-0.714 0.852-0.464 1.759-1.187 2.721-2.169 0.957-0.978 1.659-1.897 2.104-2.76 0.441-0.867 0.658-1.853 0.652-2.959-0.012-1.101-0.417-2.309-1.217-3.622-0.799-1.323-2.01-2.778-3.631-4.365-1.621-1.587-3.101-2.766-4.441-3.538-1.33-0.771-2.546-1.151-3.647-1.14-1.106 0.016-2.088 0.254-2.944 0.714zM243.664 228.357c0.356 2.415-0.662 4.844-3.055 7.288-2.397 2.449-4.807 3.521-7.228 3.215-2.417-0.3-5.171-1.964-8.264-4.991-3.092-3.028-4.814-5.746-5.165-8.157-0.356-2.415 0.665-4.846 3.062-7.295 2.393-2.444 4.8-3.513 7.222-3.208 2.417 0.3 5.171 1.964 8.263 4.991 3.092 3.028 4.814 5.746 5.165 8.157z" fill="#e83d95" data-fill-palette-color="primary"></path><path d="M242.282 191.972l0.685-1.117 15.292 21.4-26.011-3.902 0.684-1.117 22.633 3.369z" fill="#e83d95" data-fill-palette-color="primary"></path><path d="M269.605 178.881l1.09-0.552c1.225 2.075 1.229 4.71 0.013 7.907-1.219 3.203-2.999 5.148-5.342 5.836-2.335 0.691-5.525 0.267-9.569-1.273-4.045-1.539-6.709-3.344-7.995-5.412-1.291-2.071-1.328-4.708-0.108-7.911v0c1.412-3.709 3.586-5.766 6.522-6.17v0l4.284 12.392-0.687 1.804-4.405-12.786c-1.935 0.553-3.457 2.286-4.566 5.197v0c-0.489 1.285-0.766 2.411-0.829 3.38-0.058 0.971 0.137 1.962 0.585 2.973 0.451 1.005 1.305 1.95 2.563 2.834 1.261 0.893 2.952 1.743 5.073 2.551 2.12 0.807 3.949 1.296 5.485 1.468 1.527 0.176 2.794 0.038 3.798-0.413 1.007-0.457 1.812-1.068 2.414-1.831 0.596-0.766 1.138-1.791 1.628-3.077v0c1.108-2.912 1.123-5.217 0.046-6.917z" fill="#e83d95" data-fill-palette-color="primary"></path><path d="M7.51 139.089c0-1.822 1.477-3.298 3.299-3.298 1.822 0 3.298 1.477 3.298 3.298 0 1.822-1.477 3.298-3.298 3.298-1.822 0-3.298-1.477-3.299-3.298z" fill="#e83d95" data-fill-palette-color="primary"></path><path d="M263.257 139.089c0-1.822 1.477-3.298 3.298-3.298 1.822 0 3.298 1.477 3.299 3.298 0 1.822-1.477 3.298-3.299 3.298-1.822 0-3.298-1.477-3.298-3.298z" fill="#e83d95" data-fill-palette-color="primary"></path></g></svg></g></svg></g></svg></g></svg></g><defs></defs></svg><rect width="279.72" height="279.72" fill="none" stroke="none" visibility="hidden"></rect></g></svg></g></svg>