<svg width="20" height="17" viewBox="0 0 20 17" fill="none" xmlns="http://www.w3.org/2000/svg">
<path d="M10.7761 4.1278C10.2712 4.1278 9.86182 4.53714 9.86182 5.04209C9.86182 5.54703 10.2712 5.95637 10.7761 5.95637H11.8345C12.3394 5.95637 12.7487 5.54703 12.7487 5.04209C12.7487 4.53714 12.3394 4.1278 11.8345 4.1278H10.7761Z" fill="#F18A00"/>
<path fill-rule="evenodd" clip-rule="evenodd" d="M0.400024 2.82294C0.400024 1.3081 1.62804 0.0800781 3.14288 0.0800781H13.5972C15.1121 0.0800781 16.3401 1.3081 16.3401 2.82293V4.35029L17.1982 3.37327C18.033 2.42273 19.6 3.01317 19.6 4.27826V11.961C19.6 13.1701 18.149 13.7876 17.2778 12.9493L16.3401 12.0472V13.2773C16.3401 14.7921 15.1121 16.0201 13.5972 16.0201H3.14288C1.62804 16.0201 0.400024 14.7921 0.400024 13.2773V2.82294ZM3.14288 1.90865C2.63794 1.90865 2.2286 2.31799 2.2286 2.82294V13.2773C2.2286 13.7822 2.63794 14.1916 3.14288 14.1916H13.5972C14.1022 14.1916 14.5115 13.7822 14.5115 13.2773V2.82293C14.5115 2.31799 14.1022 1.90865 13.5972 1.90865H3.14288ZM17.7715 5.49153L16.3548 7.10452V9.52389L17.7715 10.8868V5.49153Z" fill="#F18A00"/>
</svg>
