<svg width="20" height="20" viewBox="0 0 20 20" fill="none" xmlns="http://www.w3.org/2000/svg">
<path d="M10.9112 4.65218C10.9112 4.14723 10.5018 3.73789 9.9969 3.73789C9.49195 3.73789 9.08261 4.14723 9.08261 4.65218V9.42754C9.08261 10.1886 9.55405 10.8701 10.2662 11.1386L14.6877 12.8052C15.1602 12.9833 15.6876 12.7446 15.8657 12.2722C16.0438 11.7997 15.8051 11.2722 15.3326 11.0941L10.9112 9.42754V4.65218Z" fill="#F18A00"/>
<path fill-rule="evenodd" clip-rule="evenodd" d="M10 0.400391C4.69809 0.400391 0.400024 4.69846 0.400024 10.0004C0.400024 15.3023 4.69809 19.6004 10 19.6004C15.302 19.6004 19.6 15.3023 19.6 10.0004C19.6 4.69846 15.302 0.400391 10 0.400391ZM2.2286 10.0004C2.2286 5.70835 5.70798 2.22896 10 2.22896C14.2921 2.22896 17.7715 5.70835 17.7715 10.0004C17.7715 14.2924 14.2921 17.7718 10 17.7718C5.70798 17.7718 2.2286 14.2924 2.2286 10.0004Z" fill="#F18A00"/>
</svg>
