<svg width="22" height="20" viewBox="0 0 22 20" fill="none" xmlns="http://www.w3.org/2000/svg">
<path d="M12.215 1.80616C12.215 1.25388 11.7673 0.806158 11.215 0.806152C10.6627 0.806147 10.215 1.25386 10.215 1.80614L10.2149 11.2021L7.82285 8.81006C7.43233 8.41953 6.79917 8.41953 6.40864 8.81006C6.01812 9.20058 6.01812 9.83375 6.40864 10.2243L10.4407 14.2564C10.4885 14.3147 10.5427 14.3675 10.6022 14.4138C10.9951 14.7511 11.5878 14.7337 11.96 14.3614L16.0972 10.2243C16.4877 9.83375 16.4877 9.20058 16.0972 8.81006C15.7067 8.41953 15.0735 8.41953 14.683 8.81006L12.2149 11.2781L12.215 1.80616Z" fill="#005AA9"/>
<path d="M2.50012 14.4748L2.50012 16.1926C2.50012 16.7448 2.94784 17.1926 3.50012 17.1926L18.5001 17.1926C19.0524 17.1926 19.5001 16.7448 19.5001 16.1926V14.4748C19.5001 13.9226 19.9478 13.4748 20.5001 13.4748C21.0524 13.4748 21.5001 13.9226 21.5001 14.4748V16.1926C21.5001 17.8494 20.157 19.1926 18.5001 19.1926H3.50012C1.84327 19.1926 0.500122 17.8494 0.500122 16.1926V14.4748C0.500122 13.9226 0.947837 13.4748 1.50012 13.4748C2.05241 13.4748 2.50012 13.9226 2.50012 14.4748Z" fill="#005AA9"/>
</svg>
