<svg width="74" height="64" viewBox="0 0 74 64" fill="none" xmlns="http://www.w3.org/2000/svg">
<path d="M73.4814 63.4304L71.7138 50.5461C67.842 50.8765 64.7697 50.257 62.4971 48.6878C60.2245 47.036 58.7094 44.7647 57.9519 41.874C57.1101 38.9007 56.8997 35.5557 57.3206 31.8391H73.4814V0H42.296V33.078C42.296 43.8975 44.9053 52.0741 50.1239 57.6077C55.3425 63.1413 63.1284 65.0822 73.4814 63.4304ZM31.1854 63.4304L29.4178 50.5461C25.5459 50.8765 22.4737 50.257 20.2011 48.6878C17.9284 47.036 16.4133 44.7647 15.6558 41.874C14.8141 38.9007 14.6037 35.5557 15.0245 31.8391H31.1854V0H-3.8147e-05V33.078C-3.8147e-05 43.8975 2.60928 52.0741 7.8279 57.6077C13.0465 63.1413 20.8323 65.0822 31.1854 63.4304Z" fill="#F18A00"/>
</svg>
