<svg width="40" height="40" viewBox="0 0 40 40" fill="none" xmlns="http://www.w3.org/2000/svg">
<rect width="40" height="40" rx="8" fill="#D33A3A"/>
<path d="M14.568 17.288C15.2987 17.288 15.8373 17.448 16.184 17.768C16.536 18.0827 16.712 18.5227 16.712 19.088C16.712 19.344 16.6747 19.5893 16.6 19.824C16.5253 20.0533 16.4 20.2587 16.224 20.44C16.0533 20.6213 15.8267 20.7653 15.544 20.872C15.2667 20.9787 14.9227 21.032 14.512 21.032H14.032V23H12.672V17.288H14.568ZM14.52 18.4H14.032V19.92H14.392C14.5787 19.92 14.7413 19.8933 14.88 19.84C15.024 19.7867 15.136 19.7013 15.216 19.584C15.296 19.4667 15.336 19.3147 15.336 19.128C15.336 18.8933 15.2693 18.7147 15.136 18.592C15.0027 18.464 14.7973 18.4 14.52 18.4ZM22.4951 20.056C22.4951 20.7067 22.3724 21.2507 22.1271 21.688C21.8817 22.1253 21.5297 22.4533 21.0711 22.672C20.6124 22.8907 20.0657 23 19.4311 23H17.7111V17.288H19.5911C20.1937 17.288 20.7111 17.3947 21.1431 17.608C21.5804 17.8213 21.9137 18.1333 22.1431 18.544C22.3777 18.9493 22.4951 19.4533 22.4951 20.056ZM21.0871 20.104C21.0871 19.7147 21.0311 19.3947 20.9191 19.144C20.8124 18.8933 20.6497 18.7067 20.4311 18.584C20.2177 18.4613 19.9511 18.4 19.6311 18.4H19.0711V21.88H19.5111C20.0497 21.88 20.4471 21.7333 20.7031 21.44C20.9591 21.1413 21.0871 20.696 21.0871 20.104ZM24.9535 23H23.6095V17.288H26.9295V18.392H24.9535V19.688H26.7855V20.792H24.9535V23Z" fill="white"/>
<mask id="mask0_32_17476" style="mask-type:alpha" maskUnits="userSpaceOnUse" x="0" y="0" width="40" height="40">
<path d="M0 8C0 3.58172 3.58172 0 8 0H29H32C36.4183 0 40 3.58172 40 8V12V32C40 36.4183 36.4183 40 32 40H8C3.58172 40 0 36.4183 0 32V8Z" fill="#E2574C"/>
</mask>
<g mask="url(#mask0_32_17476)">
<circle cx="37" cy="5" r="9" fill="#FE5454"/>
<path d="M40 13.5L29.5 0H40V13.5Z" fill="#F5F5F5"/>
</g>
</svg>
