<svg width="18" height="18" viewBox="0 0 18 18" fill="none" xmlns="http://www.w3.org/2000/svg">
<path d="M7.1665 8.58284C7.1665 8.12261 7.5396 7.74951 7.99984 7.74951H9.24984C9.71007 7.74951 10.0832 8.12261 10.0832 8.58284V11.9162H10.4998C10.9601 11.9162 11.3332 12.2893 11.3332 12.7495C11.3332 13.2097 10.9601 13.5828 10.4998 13.5828H7.99984C7.5396 13.5828 7.1665 13.2097 7.1665 12.7495C7.1665 12.2893 7.5396 11.9162 7.99984 11.9162H8.4165V9.41618H7.99984C7.5396 9.41618 7.1665 9.04308 7.1665 8.58284Z" fill="#D30000"/>
<path d="M8.87476 6.91618C9.45005 6.91618 9.91642 6.44981 9.91642 5.87451C9.91642 5.29921 9.45005 4.83284 8.87476 4.83284C8.29946 4.83284 7.83309 5.29921 7.83309 5.87451C7.83309 6.44981 8.29946 6.91618 8.87476 6.91618Z" fill="#D30000"/>
<path fill-rule="evenodd" clip-rule="evenodd" d="M0.666504 8.99935C0.666504 4.39698 4.39746 0.666016 8.99984 0.666016C13.6022 0.666016 17.3332 4.39698 17.3332 8.99935C17.3332 13.6017 13.6022 17.3327 8.99984 17.3327C4.39746 17.3327 0.666504 13.6017 0.666504 8.99935ZM8.99984 2.33268C5.31794 2.33268 2.33317 5.31745 2.33317 8.99935C2.33317 12.6812 5.31794 15.666 8.99984 15.666C12.6817 15.666 15.6665 12.6812 15.6665 8.99935C15.6665 5.31745 12.6817 2.33268 8.99984 2.33268Z" fill="#D30000"/>
</svg>
