<svg width="12" height="14" viewBox="0 0 12 14" fill="none" xmlns="http://www.w3.org/2000/svg">
<path fill-rule="evenodd" clip-rule="evenodd" d="M9.93308 1.33333L2.0672 1.33333C1.69749 1.33333 1.39779 1.63304 1.39779 2.00274L1.39779 11.9946C1.39779 12.5801 2.09636 12.8834 2.52418 12.4838L4.63294 10.5137C5.4026 9.79469 6.59768 9.79469 7.36734 10.5137L9.4761 12.4838C9.90392 12.8834 10.6025 12.5801 10.6025 11.9946L10.6025 2.00274C10.6025 1.63304 10.3028 1.33333 9.93308 1.33333ZM2.0672 3.33786e-07L9.93308 0C11.0392 -4.76837e-08 11.9358 0.896659 11.9358 2.00274V11.9946C11.9358 13.7462 9.84584 14.6538 8.56588 13.4581L6.45712 11.488C6.19986 11.2477 5.80041 11.2477 5.54316 11.488L3.4344 13.4581C2.15444 14.6538 0.0644536 13.7462 0.0644535 11.9946L0.0644531 2.00274C0.0644531 0.896659 0.961112 3.8147e-07 2.0672 3.33786e-07Z" fill="#015AA9"/>
</svg>
