<svg width="16" height="19" viewBox="0 0 16 19" fill="none" xmlns="http://www.w3.org/2000/svg">
<path fill-rule="evenodd" clip-rule="evenodd" d="M7.9998 0.75C4.91787 0.75 2.41947 3.2484 2.41947 6.33033L2.41947 8.0125C2.41947 9.14709 2.0979 10.2584 1.49204 11.2177L1.00552 11.988C0.335645 13.0487 1.0978 14.4315 2.35226 14.4315H13.6473C14.9018 14.4315 15.6639 13.0487 14.9941 11.988L14.5076 11.2177C13.9017 10.2584 13.5801 9.14709 13.5801 8.01251L13.5801 6.33033C13.5801 3.2484 11.0817 0.75 7.9998 0.75ZM4.08614 6.33033C4.08614 4.16887 5.83834 2.41667 7.9998 2.41667C10.1613 2.41667 11.9135 4.16887 11.9135 6.33033L11.9135 8.0125C11.9135 9.46213 12.3243 10.8821 13.0984 12.1077L13.5134 12.7648H2.48618L2.90119 12.1077C3.67527 10.8821 4.08613 9.46213 4.08613 8.01251L4.08614 6.33033Z" fill="#F18A00"/>
<path d="M6.56989 15.5672C6.41873 15.1325 5.9438 14.9026 5.50909 15.0538C5.07438 15.2049 4.84452 15.6799 4.99567 16.1146C5.42755 17.3566 6.60839 18.25 8.00005 18.25C9.3917 18.25 10.5725 17.3566 11.0044 16.1146C11.1556 15.6799 10.9257 15.2049 10.491 15.0538C10.0563 14.9026 9.58136 15.1325 9.4302 15.5672C9.22411 16.1599 8.66045 16.5834 8.00005 16.5834C7.33964 16.5834 6.77598 16.1599 6.56989 15.5672Z" fill="#F18A00"/>
</svg>
