<svg width="12" height="14" viewBox="0 0 12 14" fill="none" xmlns="http://www.w3.org/2000/svg">
<path d="M10 9.71968C9.49333 9.71968 9.04 9.91967 8.69333 10.233L3.94 7.46634C3.97333 7.31301 4 7.15967 4 6.99967C4 6.83967 3.97333 6.68634 3.94 6.53301L8.64 3.79301C9 4.12634 9.47333 4.33301 10 4.33301C11.1067 4.33301 12 3.43967 12 2.33301C12 1.22634 11.1067 0.333008 10 0.333008C8.89333 0.333008 8 1.22634 8 2.33301C8 2.49301 8.02667 2.64634 8.06 2.79967L3.36 5.53967C3 5.20634 2.52667 4.99967 2 4.99967C0.893333 4.99967 0 5.89301 0 6.99967C0 8.10634 0.893333 8.99967 2 8.99967C2.52667 8.99967 3 8.79301 3.36 8.45967L8.10667 11.233C8.07333 11.373 8.05333 11.5197 8.05333 11.6663C8.05333 12.7397 8.92667 13.613 10 13.613C11.0733 13.613 11.9467 12.7397 11.9467 11.6663C11.9467 10.593 11.0733 9.71968 10 9.71968ZM10 1.66634C10.3667 1.66634 10.6667 1.96634 10.6667 2.33301C10.6667 2.69967 10.3667 2.99967 10 2.99967C9.63333 2.99967 9.33333 2.69967 9.33333 2.33301C9.33333 1.96634 9.63333 1.66634 10 1.66634ZM2 7.66634C1.63333 7.66634 1.33333 7.36634 1.33333 6.99967C1.33333 6.63301 1.63333 6.33301 2 6.33301C2.36667 6.33301 2.66667 6.63301 2.66667 6.99967C2.66667 7.36634 2.36667 7.66634 2 7.66634ZM10 12.3463C9.63333 12.3463 9.33333 12.0463 9.33333 11.6797C9.33333 11.313 9.63333 11.013 10 11.013C10.3667 11.013 10.6667 11.313 10.6667 11.6797C10.6667 12.0463 10.3667 12.3463 10 12.3463Z" fill="#015AA9"/>
</svg>
