<svg width="16" height="20" viewBox="0 0 16 20" fill="none" xmlns="http://www.w3.org/2000/svg">
<path d="M15.1731 8.5151C14.8088 8.87942 14.2182 8.87942 13.8538 8.5151L8.92364 3.58491L8.92364 14.5973C8.92364 15.1125 8.50597 15.5302 7.99075 15.5302C7.47554 15.5302 7.05787 15.1125 7.05787 14.5973L7.05787 3.58505L2.12781 8.5151C1.7635 8.87942 1.17283 8.87942 0.808513 8.5151C0.444197 8.15079 0.444197 7.56012 0.808513 7.1958L7.33117 0.673138C7.69549 0.308824 8.28616 0.308824 8.65048 0.673138L15.1731 7.1958C15.5375 7.56012 15.5375 8.15079 15.1731 8.5151Z" fill="black" fill-opacity="0.6"/>
<path d="M1.01296 17.7341C0.497746 17.7341 0.0800781 18.1518 0.0800781 18.667C0.0800781 19.1822 0.497746 19.5999 1.01296 19.5999H14.9687C15.4839 19.5999 15.9016 19.1822 15.9016 18.667C15.9016 18.1518 15.4839 17.7341 14.9687 17.7341H1.01296Z" fill="black" fill-opacity="0.6"/>
</svg>
