<svg width="14" height="18" viewBox="0 0 14 18" fill="none" xmlns="http://www.w3.org/2000/svg">
<path fill-rule="evenodd" clip-rule="evenodd" d="M7.66291 0.524587C7.2968 0.158471 6.7032 0.158471 6.33709 0.524587L1.64959 5.21209C1.28348 5.5782 1.28348 6.1718 1.64959 6.53791C2.0157 6.90402 2.6093 6.90402 2.97541 6.53791L6.0625 3.45082V11.8125C6.0625 12.3302 6.48224 12.75 7 12.75C7.51776 12.75 7.9375 12.3302 7.9375 11.8125V3.45082L11.0246 6.53791C11.3907 6.90402 11.9843 6.90402 12.3504 6.53791C12.7165 6.1718 12.7165 5.5782 12.3504 5.21209L7.66291 0.524587ZM1.6875 15.25C1.16974 15.25 0.75 15.6698 0.75 16.1875C0.75 16.7052 1.16974 17.125 1.6875 17.125H12.3125C12.8302 17.125 13.25 16.7052 13.25 16.1875C13.25 15.6698 12.8302 15.25 12.3125 15.25H1.6875Z" fill="#005AA9"/>
</svg>
